<svg width="26" height="26" viewBox="0 0 26 26" fill="none" xmlns="http://www.w3.org/2000/svg">
<g clip-path="url(#clip0_104_2199)">
<path d="M12.9998 2.16663C15.9433 2.16663 16.3105 2.17746 17.4653 2.23163C18.6191 2.28579 19.4045 2.46671 20.0957 2.73538C20.8107 3.01054 21.413 3.38321 22.0153 3.98446C22.5662 4.52601 22.9925 5.1811 23.2644 5.90413C23.532 6.59421 23.714 7.38071 23.7682 8.53446C23.8191 9.68929 23.8332 10.0565 23.8332 13C23.8332 15.9434 23.8223 16.3106 23.7682 17.4655C23.714 18.6192 23.532 19.4046 23.2644 20.0958C22.9932 20.8192 22.5669 21.4745 22.0153 22.0155C21.4736 22.5661 20.8186 22.9924 20.0957 23.2645C19.4056 23.5321 18.6191 23.7141 17.4653 23.7683C16.3105 23.8192 15.9433 23.8333 12.9998 23.8333C10.0564 23.8333 9.68917 23.8225 8.53434 23.7683C7.38059 23.7141 6.59517 23.5321 5.904 23.2645C5.18069 22.9931 4.52549 22.5668 3.98434 22.0155C3.43336 21.474 3.0071 20.8189 2.73525 20.0958C2.46659 19.4057 2.28567 18.6192 2.2315 17.4655C2.18059 16.3106 2.1665 15.9434 2.1665 13C2.1665 10.0565 2.17734 9.68929 2.2315 8.53446C2.28567 7.37963 2.46659 6.59529 2.73525 5.90413C3.00634 5.18065 3.43271 4.52539 3.98434 3.98446C4.52565 3.43329 5.1808 3.007 5.904 2.73538C6.59517 2.46671 7.3795 2.28579 8.53434 2.23163C9.68917 2.18071 10.0564 2.16663 12.9998 2.16663ZM12.9998 7.58329C11.5632 7.58329 10.1855 8.15398 9.16967 9.1698C8.15385 10.1856 7.58317 11.5634 7.58317 13C7.58317 14.4365 8.15385 15.8143 9.16967 16.8301C10.1855 17.8459 11.5632 18.4166 12.9998 18.4166C14.4364 18.4166 15.8142 17.8459 16.83 16.8301C17.8458 15.8143 18.4165 14.4365 18.4165 13C18.4165 11.5634 17.8458 10.1856 16.83 9.1698C15.8142 8.15398 14.4364 7.58329 12.9998 7.58329ZM20.0415 7.31246C20.0415 6.95331 19.8988 6.60887 19.6449 6.35492C19.3909 6.10096 19.0465 5.95829 18.6873 5.95829C18.3282 5.95829 17.9838 6.10096 17.7298 6.35492C17.4758 6.60887 17.3332 6.95331 17.3332 7.31246C17.3332 7.67161 17.4758 8.01604 17.7298 8.27C17.9838 8.52395 18.3282 8.66663 18.6873 8.66663C19.0465 8.66663 19.3909 8.52395 19.6449 8.27C19.8988 8.01604 20.0415 7.67161 20.0415 7.31246ZM12.9998 9.74996C13.8618 9.74996 14.6884 10.0924 15.2979 10.7019C15.9074 11.3114 16.2498 12.138 16.2498 13C16.2498 13.8619 15.9074 14.6886 15.2979 15.2981C14.6884 15.9075 13.8618 16.25 12.9998 16.25C12.1379 16.25 11.3112 15.9075 10.7017 15.2981C10.0922 14.6886 9.74984 13.8619 9.74984 13C9.74984 12.138 10.0922 11.3114 10.7017 10.7019C11.3112 10.0924 12.1379 9.74996 12.9998 9.74996Z" fill="white" fill-opacity="0.61"/>
</g>
<defs>
<clipPath id="clip0_104_2199">
<rect width="26" height="26" fill="white"/>
</clipPath>
</defs>
</svg>
