<svg width="10" height="14" viewBox="0 0 10 14" fill="none" xmlns="http://www.w3.org/2000/svg">
<path d="M5.00016 0.333496C2.42016 0.333496 0.333496 2.42016 0.333496 5.00016C0.333496 7.78016 3.28016 11.6135 4.4935 13.0735C4.76016 13.3935 5.24683 13.3935 5.5135 13.0735C6.72016 11.6135 9.66683 7.78016 9.66683 5.00016C9.66683 2.42016 7.58016 0.333496 5.00016 0.333496ZM5.00016 6.66683C4.55814 6.66683 4.13421 6.49123 3.82165 6.17867C3.50909 5.86611 3.3335 5.44219 3.3335 5.00016C3.3335 4.55814 3.50909 4.13421 3.82165 3.82165C4.13421 3.50909 4.55814 3.3335 5.00016 3.3335C5.44219 3.3335 5.86611 3.50909 6.17867 3.82165C6.49123 4.13421 6.66683 4.55814 6.66683 5.00016C6.66683 5.44219 6.49123 5.86611 6.17867 6.17867C5.86611 6.49123 5.44219 6.66683 5.00016 6.66683Z" fill="black"/>
</svg>
