<svg width="12" height="14" viewBox="0 0 12 14" fill="none" xmlns="http://www.w3.org/2000/svg">
<path d="M5.33333 0.333496C5.15652 0.333496 4.98695 0.403734 4.86193 0.528758C4.7369 0.653782 4.66667 0.823352 4.66667 1.00016C4.66667 1.17697 4.7369 1.34654 4.86193 1.47157C4.98695 1.59659 5.15652 1.66683 5.33333 1.66683H6V6.3335C6 7.36683 5.03133 8.3335 3.66667 8.3335C2.302 8.3335 1.33333 7.36683 1.33333 6.3335V1.66683H2C2.17681 1.66683 2.34638 1.59659 2.4714 1.47157C2.59643 1.34654 2.66667 1.17697 2.66667 1.00016C2.66667 0.823352 2.59643 0.653782 2.4714 0.528758C2.34638 0.403734 2.17681 0.333496 2 0.333496H0.666667C0.489856 0.333496 0.320286 0.403734 0.195262 0.528758C0.0702379 0.653782 0 0.823352 0 1.00016V6.3335C0 8.02416 1.342 9.33083 3 9.61083V11.6668C3 12.0308 3.13 12.5302 3.50467 12.9462C3.898 13.3835 4.50533 13.6668 5.33333 13.6668H8.66667C8.99533 13.6668 9.474 13.5735 9.88933 13.2748C10.34 12.9502 10.6667 12.4168 10.6667 11.6668V10.8868C11.1117 10.7296 11.4867 10.42 11.7256 10.013C11.9644 9.60589 12.0517 9.12748 11.9719 8.6623C11.8921 8.19713 11.6504 7.77513 11.2896 7.47091C10.9287 7.16669 10.472 6.99984 10 6.99984C9.52803 6.99984 9.07126 7.16669 8.71042 7.47091C8.34958 7.77513 8.10791 8.19713 8.02813 8.6623C7.94834 9.12748 8.03558 9.60589 8.27443 10.013C8.51327 10.42 8.88834 10.7296 9.33333 10.8868V11.6668C9.33333 11.9828 9.21667 12.1162 9.11067 12.1922C8.97067 12.2935 8.782 12.3335 8.66667 12.3335H5.33333C4.828 12.3335 4.602 12.1722 4.49533 12.0542C4.39863 11.9474 4.34146 11.8107 4.33333 11.6668V9.61083C5.99133 9.33083 7.33333 8.02416 7.33333 6.3335V1.00016C7.33333 0.823352 7.2631 0.653782 7.13807 0.528758C7.01305 0.403734 6.84348 0.333496 6.66667 0.333496H5.33333ZM10 9.66683C9.82319 9.66683 9.65362 9.59659 9.52859 9.47157C9.40357 9.34654 9.33333 9.17697 9.33333 9.00016C9.33333 8.82335 9.40357 8.65378 9.52859 8.52876C9.65362 8.40373 9.82319 8.3335 10 8.3335C10.1768 8.3335 10.3464 8.40373 10.4714 8.52876C10.5964 8.65378 10.6667 8.82335 10.6667 9.00016C10.6667 9.17697 10.5964 9.34654 10.4714 9.47157C10.3464 9.59659 10.1768 9.66683 10 9.66683Z" fill="black"/>
</svg>
