<svg width="26" height="26" viewBox="0 0 26 26" fill="none" xmlns="http://www.w3.org/2000/svg">
<path d="M24.2317 6.90895C23.4011 7.27813 22.5073 7.52716 21.5695 7.6386C22.527 7.06534 23.2613 6.15729 23.6075 5.07405C22.7119 5.60558 21.7203 5.99127 20.6642 6.19948C19.8189 5.29877 18.6142 4.7356 17.281 4.7356C14.7215 4.7356 12.6463 6.81081 12.6463 9.37077C12.6463 9.73353 12.6871 10.0871 12.7664 10.427C8.9141 10.2334 5.49837 8.38843 3.21219 5.58402C2.8132 6.26827 2.58481 7.06442 2.58481 7.91468C2.58481 9.52257 3.40298 10.9415 4.64673 11.7725C3.88727 11.7482 3.17229 11.5395 2.54721 11.1924C2.54675 11.2116 2.54675 11.2314 2.54675 11.2511C2.54675 13.4964 4.14455 15.3694 6.26516 15.7959C5.87626 15.9014 5.46672 15.9583 5.04388 15.9583C4.74487 15.9583 4.45457 15.9294 4.17161 15.8748C4.76184 17.7161 6.47337 19.0566 8.50135 19.0938C6.91501 20.3371 4.91685 21.0782 2.74487 21.0782C2.3711 21.0782 2.00192 21.0562 1.63916 21.0131C3.69098 22.3288 6.12712 23.0956 8.74441 23.0956C17.2704 23.0956 21.9322 16.033 21.9322 9.9078C21.9322 9.70693 21.9281 9.50652 21.9194 9.30748C22.8247 8.65534 23.6107 7.83855 24.2317 6.90895Z" fill="white" fill-opacity="0.61"/>
</svg>
