<svg width="16" height="16" viewBox="0 0 16 16" fill="none" xmlns="http://www.w3.org/2000/svg">
<path d="M4 2.00016C4 1.82335 4.07024 1.65378 4.19526 1.52876C4.32029 1.40373 4.48986 1.3335 4.66667 1.3335C4.84348 1.3335 5.01305 1.40373 5.13807 1.52876C5.2631 1.65378 5.33333 1.82335 5.33333 2.00016V2.66683H10.6667V2.00016C10.6667 1.82335 10.7369 1.65378 10.8619 1.52876C10.987 1.40373 11.1565 1.3335 11.3333 1.3335C11.5101 1.3335 11.6797 1.40373 11.8047 1.52876C11.9298 1.65378 12 1.82335 12 2.00016V2.66683H12.6667C13.0203 2.66683 13.3594 2.80731 13.6095 3.05735C13.8595 3.3074 14 3.64654 14 4.00016V13.3335C14 13.6871 13.8595 14.0263 13.6095 14.2763C13.3594 14.5264 13.0203 14.6668 12.6667 14.6668H3.33333C2.97971 14.6668 2.64057 14.5264 2.39052 14.2763C2.14048 14.0263 2 13.6871 2 13.3335V4.00016C2 3.64654 2.14048 3.3074 2.39052 3.05735C2.64057 2.80731 2.97971 2.66683 3.33333 2.66683H4V2.00016ZM3.33333 6.00016V12.6668C3.33333 12.8436 3.40357 13.0132 3.5286 13.1382C3.65362 13.2633 3.82319 13.3335 4 13.3335H12C12.1768 13.3335 12.3464 13.2633 12.4714 13.1382C12.5964 13.0132 12.6667 12.8436 12.6667 12.6668V6.00016H3.33333ZM4.66667 8.3335C4.66667 8.15668 4.7369 7.98712 4.86193 7.86209C4.98695 7.73707 5.15652 7.66683 5.33333 7.66683C5.51014 7.66683 5.67971 7.73707 5.80474 7.86209C5.92976 7.98712 6 8.15668 6 8.3335C6 8.51031 5.92976 8.67988 5.80474 8.8049C5.67971 8.92992 5.51014 9.00016 5.33333 9.00016C5.15652 9.00016 4.98695 8.92992 4.86193 8.8049C4.7369 8.67988 4.66667 8.51031 4.66667 8.3335ZM7.33333 8.3335C7.33333 8.15668 7.40357 7.98712 7.5286 7.86209C7.65362 7.73707 7.82319 7.66683 8 7.66683C8.17681 7.66683 8.34638 7.73707 8.4714 7.86209C8.59643 7.98712 8.66667 8.15668 8.66667 8.3335C8.66667 8.51031 8.59643 8.67988 8.4714 8.8049C8.34638 8.92992 8.17681 9.00016 8 9.00016C7.82319 9.00016 7.65362 8.92992 7.5286 8.8049C7.40357 8.67988 7.33333 8.51031 7.33333 8.3335ZM10.6667 7.66683C10.4899 7.66683 10.3203 7.73707 10.1953 7.86209C10.0702 7.98712 10 8.15668 10 8.3335C10 8.51031 10.0702 8.67988 10.1953 8.8049C10.3203 8.92992 10.4899 9.00016 10.6667 9.00016C10.8435 9.00016 11.013 8.92992 11.1381 8.8049C11.2631 8.67988 11.3333 8.51031 11.3333 8.3335C11.3333 8.15668 11.2631 7.98712 11.1381 7.86209C11.013 7.73707 10.8435 7.66683 10.6667 7.66683ZM5.33333 10.0002C5.15652 10.0002 4.98695 10.0704 4.86193 10.1954C4.7369 10.3204 4.66667 10.49 4.66667 10.6668C4.66667 10.8436 4.7369 11.0132 4.86193 11.1382C4.98695 11.2633 5.15652 11.3335 5.33333 11.3335C5.51014 11.3335 5.67971 11.2633 5.80474 11.1382C5.92976 11.0132 6 10.8436 6 10.6668C6 10.49 5.92976 10.3204 5.80474 10.1954C5.67971 10.0704 5.51014 10.0002 5.33333 10.0002ZM7.33333 10.6668C7.33333 10.49 7.40357 10.3204 7.5286 10.1954C7.65362 10.0704 7.82319 10.0002 8 10.0002C8.17681 10.0002 8.34638 10.0704 8.4714 10.1954C8.59643 10.3204 8.66667 10.49 8.66667 10.6668C8.66667 10.8436 8.59643 11.0132 8.4714 11.1382C8.34638 11.2633 8.17681 11.3335 8 11.3335C7.82319 11.3335 7.65362 11.2633 7.5286 11.1382C7.40357 11.0132 7.33333 10.8436 7.33333 10.6668ZM10.6667 10.0002C10.4899 10.0002 10.3203 10.0704 10.1953 10.1954C10.0702 10.3204 10 10.49 10 10.6668C10 10.8436 10.0702 11.0132 10.1953 11.1382C10.3203 11.2633 10.4899 11.3335 10.6667 11.3335C10.8435 11.3335 11.013 11.2633 11.1381 11.1382C11.2631 11.0132 11.3333 10.8436 11.3333 10.6668C11.3333 10.49 11.2631 10.3204 11.1381 10.1954C11.013 10.0704 10.8435 10.0002 10.6667 10.0002Z" fill="black"/>
</svg>
