<svg width="33" height="32" viewBox="0 0 33 32" fill="none" xmlns="http://www.w3.org/2000/svg">
<path fill-rule="evenodd" clip-rule="evenodd" d="M23.7989 21.5979C27.2155 17.2742 26.9278 10.9807 22.9359 6.98872C18.6338 2.6867 11.6589 2.6867 7.35688 6.98872C3.05487 11.2907 3.05487 18.2657 7.35688 22.5677C11.3489 26.5597 17.6424 26.8474 21.9661 23.4308L26.6015 28.0662C27.1076 28.5723 27.9282 28.5723 28.4343 28.0662C28.9404 27.56 28.9404 26.7395 28.4343 26.2333L23.7989 21.5979ZM21.103 8.82154C24.3928 12.1113 24.3928 17.4451 21.103 20.7349C17.8133 24.0247 12.4795 24.0247 9.1897 20.7349C5.89993 17.4451 5.89993 12.1113 9.1897 8.82154C12.4795 5.53176 17.8133 5.53176 21.103 8.82154Z" fill="#282828"/>
</svg>
