<svg width="360" height="251" viewBox="0 0 360 251" fill="none" xmlns="http://www.w3.org/2000/svg">
<path d="M308.998 56.3494L307.84 53.7139C298.099 31.3096 277.108 15.7476 252.989 14.0107C249.883 13.7822 246.765 13.7822 243.659 14.0107C221.285 15.7175 200.134 29.6129 189.435 49.6527C183.143 61.4246 179.91 75.5308 169.833 84.1853C156.708 95.4451 137.317 93.2213 120.386 90.38C103.456 87.5386 84.0448 85.36 70.965 96.6851C62.7732 103.778 58.9681 114.928 58.0758 125.801C55.7245 154.566 72.1131 182.803 95.6758 198.927C119.238 215.052 148.817 220.232 177.258 218.41C217.069 215.85 256.829 199.374 283.475 169.214C310.121 139.054 321.877 94.5666 308.998 56.3494Z" fill="#F5F5F5"/>
<path d="M84.3055 176.333L84.3757 45.5916C84.3757 44.63 84.565 43.6779 84.9326 42.7895C85.3003 41.9012 85.8391 41.0941 86.5184 40.4144C87.1977 39.7347 88.004 39.1957 88.8914 38.8282C89.7788 38.4606 90.7299 38.2718 91.6902 38.2725L285.43 38.3729C287.367 38.3742 289.224 39.1444 290.594 40.5145C291.964 41.8847 292.736 43.743 292.74 45.682L292.67 176.428C292.67 177.389 292.48 178.342 292.113 179.23C291.745 180.118 291.206 180.925 290.527 181.605C289.848 182.285 289.041 182.824 288.154 183.191C287.267 183.559 286.316 183.748 285.355 183.747L91.615 183.642C89.6781 183.642 87.8205 182.872 86.45 181.501C85.0795 180.131 84.3082 178.272 84.3055 176.333Z" fill="#263238"/>
<path d="M278.272 178.9L278.343 42.6826L104.335 42.5914L104.264 178.809L278.272 178.9Z" fill="white"/>
<path d="M94.8085 116.544C93.7069 116.543 92.6303 116.215 91.7149 115.601C90.7995 114.988 90.0864 114.116 89.6657 113.097C89.2451 112.077 89.1358 110.956 89.3517 109.874C89.5675 108.792 90.0989 107.799 90.8786 107.02C91.6582 106.24 92.6511 105.71 93.7318 105.496C94.8124 105.282 95.9322 105.393 96.9496 105.816C97.9669 106.239 98.8362 106.955 99.4474 107.873C100.059 108.79 100.384 109.869 100.383 110.972C100.383 111.704 100.238 112.429 99.9574 113.106C99.6769 113.782 99.266 114.397 98.7484 114.914C98.2307 115.432 97.6163 115.842 96.9403 116.121C96.2643 116.401 95.5399 116.545 94.8085 116.544Z" fill="#455A64"/>
<path d="M286.694 132.35L286.717 89.7853C286.717 89.4471 286.443 89.1727 286.105 89.1725L285.028 89.172C284.69 89.1718 284.416 89.4459 284.416 89.7841L284.393 132.349C284.393 132.687 284.667 132.961 285.005 132.961L286.083 132.962C286.42 132.962 286.694 132.688 286.694 132.35Z" fill="#455A64"/>
<path d="M218.026 77.373H103.978V88.0556H218.026V77.373Z" fill="#E0E0E0"/>
<path d="M218.026 56.3242H103.978V77.3731H218.026V56.3242Z" fill="#F5F5F5"/>
<path d="M119.078 84.381L119.309 83.879C119.651 84.1368 120.068 84.276 120.497 84.2756C121.058 84.2756 121.299 84.0748 121.299 83.8087C121.299 83.0306 119.153 83.5377 119.153 82.1973C119.153 81.615 119.619 81.123 120.607 81.123C121.029 81.1143 121.444 81.2257 121.805 81.4443L121.595 81.9463C121.291 81.7658 120.945 81.6689 120.592 81.6652C120.036 81.6652 119.81 81.8811 119.81 82.1672C119.81 82.9353 121.946 82.4383 121.946 83.7636C121.946 84.3409 121.479 84.8328 120.487 84.8328C119.981 84.8401 119.486 84.6814 119.078 84.381Z" fill="#263238"/>
<path d="M136.118 84.7626V82.3731L134.93 84.3359H134.634L133.446 82.3882V84.7476H132.81V81.1382H133.376L134.805 83.5327L136.214 81.1382H136.765V84.7476L136.118 84.7626Z" fill="#263238"/>
<path d="M147.524 81.7206H146.331V81.1533H149.389V81.7206H148.196V84.7627H147.524V81.7206Z" fill="#263238"/>
<path d="M175.247 81.7206H174.054V81.1533H177.112V81.7206H175.914V84.7627H175.247V81.7206Z" fill="#263238"/>
<path d="M188.738 81.7156V82.8301H190.478V83.3973H188.738V84.7778H188.067V81.1685H190.699V81.7307L188.738 81.7156Z" fill="#263238"/>
<path d="M202.244 84.381L202.475 83.879C202.817 84.1368 203.235 84.276 203.663 84.2756C204.225 84.2756 204.46 84.0748 204.46 83.8087C204.46 83.0306 202.319 83.5377 202.319 82.1973C202.319 81.615 202.786 81.123 203.773 81.123C204.195 81.1143 204.611 81.2257 204.972 81.4443L204.761 81.9463C204.457 81.7658 204.111 81.6689 203.758 81.6652C203.202 81.6652 202.976 81.8811 202.976 82.1672C202.976 82.9353 205.112 82.4383 205.112 83.7636C205.112 84.3409 204.641 84.8328 203.653 84.8328C203.147 84.8401 202.652 84.6814 202.244 84.381Z" fill="#263238"/>
<path d="M228.449 75.6968H221.711C220.664 75.6968 219.816 76.5464 219.816 77.5943V102.79C219.816 103.838 220.664 104.687 221.711 104.687H228.449C229.495 104.687 230.344 103.838 230.344 102.79V77.5943C230.344 76.5464 229.495 75.6968 228.449 75.6968Z" fill="#EBEBEB"/>
<path d="M223.772 78.7485V82.3579H223.115V79.3158H222.353V78.7536L223.772 78.7485Z" fill="#263238"/>
<path d="M227.045 81.274C227.045 81.8814 226.584 82.4085 225.616 82.4085C225.132 82.4166 224.658 82.2707 224.263 81.9919L224.553 81.4899C224.854 81.7252 225.225 81.851 225.606 81.8463C226.108 81.8463 226.368 81.6355 226.368 81.2991C226.368 80.9628 226.133 80.762 225.586 80.762H225.26V80.3052L226.078 79.3313H224.438V78.769H226.895V79.2158L226.017 80.26C226.152 80.2566 226.286 80.2804 226.411 80.33C226.536 80.3796 226.65 80.4539 226.746 80.5485C226.842 80.6432 226.918 80.7562 226.969 80.8808C227.021 81.0055 227.046 81.1392 227.045 81.274Z" fill="#263238"/>
<path d="M165.923 81.1533L164.729 84.7627H164.018L163.125 82.0921L162.218 84.7627H161.506L160.313 81.1533H161.005L161.902 83.8942L162.834 81.1533H163.456L164.369 83.9143L165.291 81.1533H165.923Z" fill="#263238"/>
<path d="M163.19 134.079C166.635 134.079 169.427 131.283 169.427 127.834C169.427 124.385 166.635 121.589 163.19 121.589C159.746 121.589 156.954 124.385 156.954 127.834C156.954 131.283 159.746 134.079 163.19 134.079Z" fill="#00A1A3"/>
<path d="M121.68 147.342C125.124 147.342 127.917 144.546 127.917 141.097C127.917 137.648 125.124 134.852 121.68 134.852C118.236 134.852 115.443 137.648 115.443 141.097C115.443 144.546 118.236 147.342 121.68 147.342Z" fill="#455A64"/>
<path d="M177.368 162.176C180.812 162.176 183.605 159.38 183.605 155.931C183.605 152.482 180.812 149.687 177.368 149.687C173.924 149.687 171.131 152.482 171.131 155.931C171.131 159.38 173.924 162.176 177.368 162.176Z" fill="#00A1A3"/>
<path d="M189.997 97.3882V100.993H189.325V97.9504H188.563V97.3882H189.997Z" fill="#263238"/>
<path d="M205.483 100.4V100.962H202.826V100.515L204.255 99.1548C204.606 98.8185 204.666 98.6076 204.666 98.4068C204.666 98.0755 204.44 97.9048 203.999 97.9048C203.838 97.8947 203.677 97.9236 203.529 97.9891C203.382 98.0547 203.252 98.1549 203.152 98.2813L202.685 97.9199C202.852 97.7211 203.062 97.5636 203.3 97.46C203.537 97.3563 203.795 97.3093 204.054 97.3225C204.836 97.3225 205.342 97.7191 205.342 98.3616C205.337 98.5847 205.28 98.8034 205.177 99.001C205.073 99.1986 204.926 99.3697 204.746 99.5012L203.783 100.4H205.483Z" fill="#263238"/>
<path d="M122.387 113.402C122.387 114.009 121.931 114.536 120.963 114.536C120.478 114.547 120.003 114.399 119.609 114.115L119.895 113.613C120.197 113.847 120.571 113.971 120.953 113.964C121.429 113.964 121.715 113.753 121.715 113.422C121.715 113.091 121.474 112.885 120.928 112.885H120.602V112.423L121.419 111.449H119.78V110.887H122.236V111.339L121.344 112.363C121.481 112.361 121.617 112.387 121.743 112.439C121.87 112.491 121.985 112.567 122.083 112.664C122.18 112.76 122.256 112.875 122.309 113.002C122.361 113.129 122.387 113.265 122.387 113.402Z" fill="#263238"/>
<path d="M136.57 113.663H135.933V114.481H135.281V113.663H133.306V113.201L135.081 110.872H135.798L134.123 113.095H135.301V112.368H135.933V113.095H136.57V113.663Z" fill="#263238"/>
<path d="M149.454 113.372C149.454 114.009 148.993 114.536 148.025 114.536C147.54 114.547 147.065 114.399 146.671 114.115L146.952 113.613C147.258 113.845 147.632 113.968 148.015 113.964C148.491 113.964 148.777 113.753 148.777 113.417C148.777 113.08 148.556 112.855 147.809 112.855H146.937L147.123 110.887H149.238V111.444H147.689L147.614 112.282H147.96C149.023 112.272 149.454 112.734 149.454 113.372Z" fill="#263238"/>
<path d="M163.957 113.362C163.954 113.527 163.917 113.69 163.847 113.84C163.778 113.991 163.679 114.125 163.556 114.235C163.433 114.345 163.288 114.429 163.131 114.481C162.974 114.533 162.808 114.551 162.644 114.536C161.641 114.536 161.08 113.899 161.08 112.739C161.08 111.504 161.802 110.821 162.849 110.821C163.18 110.812 163.507 110.892 163.797 111.052L163.546 111.554C163.341 111.429 163.104 111.368 162.864 111.379C162.183 111.379 161.756 111.8 161.756 112.624C161.88 112.494 162.03 112.393 162.196 112.328C162.362 112.263 162.541 112.235 162.719 112.247C162.875 112.231 163.033 112.248 163.182 112.296C163.331 112.345 163.468 112.424 163.585 112.529C163.702 112.634 163.795 112.763 163.859 112.906C163.923 113.049 163.957 113.205 163.957 113.362ZM163.311 113.397C163.311 113.02 163.03 112.779 162.589 112.779C162.499 112.77 162.409 112.778 162.323 112.805C162.237 112.831 162.158 112.875 162.089 112.933C162.021 112.991 161.965 113.063 161.925 113.143C161.885 113.224 161.862 113.312 161.857 113.402C161.857 113.738 162.127 114.009 162.604 114.009C162.689 114.018 162.776 114.008 162.858 113.981C162.94 113.954 163.015 113.911 163.079 113.853C163.143 113.795 163.195 113.725 163.23 113.647C163.266 113.568 163.285 113.483 163.286 113.397H163.311Z" fill="#263238"/>
<path d="M177.137 110.872V111.323L175.734 114.481H175.022L176.375 111.439H174.957V112.056H174.335V110.872H177.137Z" fill="#263238"/>
<path d="M191.029 113.452C191.029 114.12 190.448 114.541 189.55 114.541C188.653 114.541 188.082 114.12 188.082 113.452C188.078 113.266 188.131 113.084 188.235 112.93C188.338 112.775 188.485 112.656 188.658 112.589C188.52 112.518 188.404 112.409 188.325 112.274C188.246 112.14 188.207 111.986 188.212 111.831C188.212 111.213 188.753 110.827 189.55 110.827C190.348 110.827 190.899 111.213 190.899 111.831C190.903 111.987 190.862 112.142 190.781 112.276C190.701 112.411 190.583 112.519 190.443 112.589C190.617 112.656 190.766 112.775 190.871 112.929C190.975 113.083 191.031 113.266 191.029 113.452ZM190.353 113.452C190.353 113.096 190.042 112.875 189.55 112.875C189.059 112.875 188.758 113.096 188.758 113.452C188.758 113.809 189.054 114.034 189.55 114.034C190.047 114.034 190.333 113.793 190.333 113.452H190.353ZM188.849 111.886C188.849 112.192 189.109 112.388 189.53 112.388C189.952 112.388 190.222 112.192 190.222 111.886C190.222 111.58 189.942 111.384 189.53 111.384C189.119 111.384 188.849 111.534 188.849 111.861V111.886Z" fill="#263238"/>
<path d="M204.926 112.619C204.926 113.853 204.209 114.536 203.162 114.536C202.83 114.547 202.502 114.465 202.214 114.3L202.465 113.798C202.67 113.922 202.907 113.983 203.147 113.974C203.828 113.974 204.255 113.547 204.255 112.729C204.131 112.858 203.981 112.958 203.815 113.023C203.648 113.088 203.47 113.116 203.292 113.105C203.136 113.122 202.979 113.105 202.83 113.057C202.681 113.008 202.543 112.93 202.426 112.825C202.309 112.721 202.215 112.593 202.15 112.45C202.085 112.308 202.051 112.153 202.049 111.996C202.053 111.831 202.091 111.668 202.16 111.518C202.23 111.368 202.33 111.234 202.454 111.124C202.577 111.014 202.722 110.931 202.88 110.88C203.037 110.829 203.203 110.81 203.367 110.826C204.35 110.821 204.926 111.444 204.926 112.619ZM204.149 111.946C204.149 111.604 203.884 111.338 203.402 111.338C203.315 111.327 203.226 111.334 203.142 111.36C203.058 111.385 202.98 111.429 202.914 111.486C202.847 111.544 202.794 111.616 202.757 111.696C202.72 111.776 202.701 111.863 202.7 111.951C202.7 112.327 202.981 112.563 203.422 112.563C203.511 112.574 203.601 112.566 203.687 112.54C203.772 112.514 203.852 112.471 203.92 112.413C203.988 112.355 204.044 112.284 204.083 112.203C204.123 112.123 204.145 112.035 204.149 111.946Z" fill="#263238"/>
<path d="M120.843 126.167V129.777H120.171V126.73H119.409V126.167H120.843Z" fill="#263238"/>
<path d="M121.545 127.975C121.545 126.79 122.196 126.117 123.049 126.117C123.901 126.117 124.553 126.79 124.553 127.975C124.553 129.159 123.906 129.827 123.049 129.827C122.191 129.827 121.545 129.159 121.545 127.975ZM123.886 127.975C123.886 127.101 123.545 126.7 123.049 126.7C122.552 126.7 122.221 127.101 122.221 127.975C122.221 128.848 122.562 129.245 123.049 129.245C123.535 129.245 123.886 128.843 123.886 127.975Z" fill="#263238"/>
<path d="M135.281 126.167V129.777H134.614V126.73H133.877V126.167H135.281Z" fill="#263238"/>
<path d="M137.246 126.167V129.777H136.575V126.73H135.812V126.167H137.246Z" fill="#263238"/>
<path d="M148.466 126.167V129.777H147.799V126.73H147.037V126.167H148.466Z" fill="#263238"/>
<path d="M151.79 129.21V129.777H149.138V129.33L150.567 127.97C150.918 127.633 150.978 127.422 150.978 127.222C150.978 126.89 150.752 126.72 150.311 126.72C150.15 126.709 149.989 126.738 149.841 126.804C149.694 126.87 149.564 126.97 149.464 127.096L148.998 126.735C149.163 126.535 149.373 126.377 149.611 126.273C149.849 126.169 150.107 126.123 150.366 126.137C151.148 126.137 151.655 126.534 151.655 127.176C151.649 127.399 151.592 127.617 151.488 127.813C151.385 128.01 151.238 128.18 151.058 128.311L150.095 129.23L151.79 129.21Z" fill="#263238"/>
<path d="M162.168 126.167V129.777H161.501V126.73H160.739V126.167H162.168Z" fill="white"/>
<path d="M165.461 128.698C165.461 129.305 165.005 129.827 164.038 129.827C163.553 129.839 163.078 129.693 162.684 129.41L162.97 128.908C163.272 129.143 163.645 129.267 164.028 129.26C164.504 129.26 164.79 129.049 164.79 128.718C164.79 128.386 164.549 128.181 164.002 128.181H163.677V127.719L164.494 126.745H162.854V126.183H165.311V126.634L164.439 127.674C164.709 127.676 164.968 127.785 165.159 127.976C165.35 128.168 165.459 128.427 165.461 128.698Z" fill="white"/>
<path d="M175.618 126.167V129.777H174.952V126.73H174.19V126.167H175.618Z" fill="#263238"/>
<path d="M179.549 128.959H178.907V129.777H178.26V128.959H176.285V128.512L178.06 126.183H178.777L177.102 128.406H178.28V127.679H178.907V128.406H179.549V128.959Z" fill="#263238"/>
<path d="M189.566 126.167V129.777H188.899V126.73H188.137V126.167H189.566Z" fill="#263238"/>
<path d="M192.899 128.668C192.899 129.305 192.443 129.827 191.476 129.827C190.991 129.839 190.516 129.693 190.122 129.41L190.403 128.908C190.708 129.141 191.082 129.264 191.466 129.26C191.942 129.26 192.228 129.049 192.228 128.713C192.228 128.376 192.007 128.15 191.26 128.15H190.388L190.573 126.183H192.689V126.745H191.14L191.064 127.583H191.41C192.473 127.568 192.899 128.01 192.899 128.668Z" fill="#263238"/>
<path d="M203.157 126.167V129.777H202.485V126.73H201.723V126.167H203.157Z" fill="#263238"/>
<path d="M206.751 128.658C206.747 128.823 206.709 128.986 206.639 129.136C206.57 129.286 206.47 129.42 206.346 129.53C206.223 129.639 206.078 129.723 205.92 129.774C205.763 129.825 205.597 129.843 205.433 129.827C204.43 129.827 203.869 129.195 203.869 128.035C203.869 126.8 204.59 126.117 205.638 126.117C205.969 126.108 206.296 126.188 206.586 126.348L206.335 126.85C206.13 126.725 205.893 126.664 205.653 126.675C204.971 126.675 204.545 127.096 204.545 127.915C204.668 127.785 204.818 127.684 204.985 127.619C205.151 127.554 205.33 127.526 205.508 127.538C205.665 127.522 205.823 127.539 205.973 127.588C206.122 127.637 206.26 127.716 206.377 127.822C206.495 127.927 206.588 128.056 206.653 128.2C206.717 128.344 206.751 128.5 206.751 128.658ZM206.099 128.688C206.099 128.316 205.819 128.075 205.378 128.075C205.288 128.066 205.198 128.074 205.113 128.101C205.027 128.127 204.948 128.171 204.88 128.229C204.812 128.287 204.756 128.359 204.717 128.44C204.677 128.52 204.655 128.608 204.651 128.698C204.651 129.034 204.916 129.305 205.393 129.305C205.481 129.316 205.57 129.309 205.655 129.283C205.74 129.257 205.818 129.214 205.885 129.156C205.952 129.097 206.005 129.025 206.042 128.945C206.079 128.864 206.099 128.776 206.099 128.688Z" fill="#263238"/>
<path d="M120.843 139.682V143.291H120.171V140.244H119.409V139.682H120.843Z" fill="white"/>
<path d="M124.262 139.682V140.128L122.863 143.291H122.146L123.5 140.249H122.086V140.861H121.464V139.682H124.262Z" fill="white"/>
<path d="M134.514 139.682V143.291H133.842V140.244H133.08V139.682H134.514Z" fill="#263238"/>
<path d="M138.154 142.252C138.154 142.924 137.572 143.341 136.675 143.341C135.777 143.341 135.206 142.924 135.206 142.252C135.203 142.067 135.257 141.886 135.36 141.732C135.463 141.579 135.611 141.461 135.782 141.393C135.645 141.321 135.53 141.212 135.451 141.078C135.372 140.944 135.333 140.791 135.336 140.635C135.336 140.018 135.878 139.631 136.675 139.631C137.472 139.631 138.023 140.023 138.023 140.635C138.026 140.792 137.985 140.946 137.904 141.08C137.823 141.214 137.707 141.323 137.567 141.393C137.741 141.459 137.891 141.576 137.996 141.73C138.101 141.883 138.156 142.066 138.154 142.252ZM137.477 142.252C137.477 141.895 137.171 141.674 136.675 141.674C136.178 141.674 135.883 141.895 135.883 142.252C135.883 142.608 136.183 142.834 136.675 142.834C137.166 142.834 137.477 142.598 137.477 142.232V142.252ZM135.998 140.686C135.998 140.992 136.254 141.188 136.675 141.188C137.096 141.188 137.367 140.987 137.367 140.686C137.367 140.384 137.086 140.184 136.675 140.184C136.264 140.184 135.998 140.339 135.998 140.665V140.686Z" fill="#263238"/>
<path d="M148.376 139.682V143.291H147.704V140.244H146.942V139.682H148.376Z" fill="#263238"/>
<path d="M151.865 141.424C151.865 142.658 151.143 143.341 150.1 143.341C149.77 143.351 149.442 143.271 149.153 143.11L149.399 142.608C149.603 142.733 149.841 142.794 150.08 142.784C150.762 142.784 151.188 142.362 151.188 141.539C151.065 141.669 150.915 141.769 150.749 141.835C150.583 141.9 150.404 141.927 150.226 141.916C150.071 141.932 149.914 141.915 149.765 141.867C149.617 141.819 149.48 141.741 149.364 141.637C149.247 141.533 149.153 141.406 149.089 141.264C149.024 141.121 148.99 140.967 148.988 140.811C148.991 140.645 149.028 140.482 149.098 140.331C149.167 140.181 149.267 140.046 149.391 139.936C149.514 139.825 149.66 139.742 149.817 139.69C149.975 139.639 150.141 139.62 150.306 139.636C151.289 139.626 151.865 140.264 151.865 141.424ZM151.088 140.761C151.088 140.425 150.817 140.153 150.341 140.153C150.254 140.142 150.165 140.149 150.08 140.175C149.996 140.2 149.918 140.243 149.851 140.301C149.784 140.359 149.73 140.43 149.693 140.51C149.656 140.591 149.636 140.678 149.634 140.766C149.634 141.142 149.92 141.383 150.356 141.383C150.446 141.393 150.536 141.384 150.622 141.358C150.708 141.332 150.787 141.288 150.856 141.23C150.924 141.171 150.98 141.1 151.02 141.019C151.06 140.939 151.083 140.851 151.088 140.761Z" fill="#263238"/>
<path d="M162.905 142.724V143.291H160.248V142.839L161.681 141.479C162.032 141.142 162.092 140.932 162.092 140.731C162.092 140.399 161.867 140.229 161.426 140.229C161.265 140.219 161.103 140.248 160.956 140.313C160.808 140.379 160.679 140.479 160.578 140.605L160.112 140.244C160.278 140.043 160.488 139.885 160.725 139.78C160.963 139.675 161.222 139.628 161.481 139.641C162.263 139.641 162.769 140.043 162.769 140.681C162.764 140.904 162.707 141.122 162.604 141.32C162.5 141.517 162.353 141.689 162.173 141.82L161.205 142.739L162.905 142.724Z" fill="#263238"/>
<path d="M163.276 141.484C163.276 140.299 163.922 139.626 164.78 139.626C165.637 139.626 166.284 140.299 166.284 141.484C166.284 142.669 165.632 143.341 164.78 143.341C163.927 143.341 163.276 142.669 163.276 141.484ZM165.612 141.484C165.612 140.615 165.276 140.214 164.78 140.214C164.283 140.214 163.952 140.615 163.952 141.484C163.952 142.352 164.288 142.759 164.78 142.759C165.271 142.759 165.612 142.357 165.612 141.484Z" fill="#263238"/>
<path d="M177.443 142.724V143.291H174.791V142.839L176.22 141.479C176.571 141.142 176.631 140.932 176.631 140.731C176.631 140.399 176.406 140.229 175.964 140.229C175.803 140.219 175.642 140.248 175.495 140.313C175.347 140.379 175.218 140.479 175.117 140.605L174.651 140.244C174.816 140.043 175.026 139.885 175.264 139.78C175.501 139.675 175.76 139.628 176.02 139.641C176.802 139.641 177.308 140.043 177.308 140.681C177.302 140.904 177.246 141.122 177.142 141.32C177.039 141.517 176.891 141.689 176.711 141.82L175.749 142.739L177.443 142.724Z" fill="#263238"/>
<path d="M179.078 139.682V143.291H178.406V140.244H177.644V139.682H179.078Z" fill="#263238"/>
<path d="M190.724 142.724V143.291H188.067V142.839L189.5 141.479C189.851 141.142 189.911 140.932 189.911 140.731C189.911 140.399 189.686 140.229 189.24 140.229C189.079 140.219 188.919 140.249 188.773 140.314C188.626 140.38 188.497 140.48 188.397 140.605L187.931 140.244C188.097 140.043 188.306 139.885 188.544 139.78C188.782 139.675 189.041 139.628 189.3 139.641C190.082 139.641 190.583 140.043 190.583 140.681C190.579 140.904 190.523 141.123 190.419 141.321C190.315 141.518 190.167 141.689 189.987 141.82L189.024 142.724H190.724Z" fill="#263238"/>
<path d="M193.722 142.724V143.291H191.064V142.839L192.493 141.479C192.844 141.142 192.904 140.932 192.904 140.731C192.904 140.399 192.679 140.229 192.238 140.229C192.077 140.219 191.915 140.248 191.768 140.313C191.62 140.379 191.491 140.479 191.39 140.605L190.924 140.244C191.089 140.043 191.299 139.885 191.537 139.78C191.775 139.675 192.033 139.628 192.293 139.641C193.075 139.641 193.581 140.043 193.581 140.681C193.576 140.904 193.519 141.122 193.415 141.32C193.312 141.517 193.165 141.689 192.985 141.82L192.032 142.724H193.722Z" fill="#263238"/>
<path d="M204.52 142.724V143.291H201.863V142.839L203.297 141.479C203.643 141.142 203.708 140.932 203.708 140.731C203.708 140.399 203.482 140.229 203.036 140.229C202.876 140.219 202.716 140.249 202.569 140.314C202.423 140.38 202.294 140.48 202.194 140.605L201.723 140.244C201.889 140.043 202.1 139.885 202.339 139.78C202.577 139.675 202.836 139.628 203.096 139.641C203.879 139.641 204.38 140.043 204.38 140.681C204.375 140.904 204.319 141.123 204.216 141.321C204.112 141.518 203.964 141.689 203.783 141.82L202.821 142.739L204.52 142.724Z" fill="#263238"/>
<path d="M207.463 142.207C207.463 142.814 207.007 143.341 206.039 143.341C205.555 143.351 205.081 143.205 204.686 142.924L204.971 142.422C205.274 142.658 205.647 142.784 206.029 142.779C206.506 142.779 206.791 142.568 206.791 142.232C206.791 141.895 206.551 141.695 206.009 141.695H205.678V141.238L206.495 140.264H204.861V139.702H207.313V140.148L206.44 141.193C206.575 141.19 206.708 141.214 206.833 141.264C206.957 141.314 207.071 141.388 207.166 141.483C207.261 141.578 207.337 141.69 207.388 141.815C207.439 141.939 207.464 142.072 207.463 142.207Z" fill="#263238"/>
<path d="M122.196 157.512V158.08H119.539V157.628L120.968 156.262C121.319 155.931 121.384 155.72 121.384 155.519C121.384 155.188 121.154 155.017 120.712 155.017C120.552 155.008 120.392 155.037 120.245 155.103C120.099 155.168 119.97 155.268 119.87 155.394L119.399 155.032C119.565 154.833 119.775 154.675 120.013 154.571C120.25 154.468 120.509 154.421 120.768 154.435C121.55 154.435 122.056 154.832 122.056 155.469C122.052 155.692 121.996 155.912 121.892 156.11C121.789 156.307 121.641 156.478 121.459 156.609L120.497 157.527L122.196 157.512Z" fill="#263238"/>
<path d="M125.716 157.261H125.079V158.08H124.427V157.261H122.452V156.794L124.227 154.47H124.944L123.269 156.694H124.447V155.966H125.079V156.694H125.716V157.261Z" fill="#263238"/>
<path d="M136.123 157.512V158.08H133.471V157.628L134.9 156.262C135.251 155.931 135.311 155.72 135.311 155.519C135.311 155.188 135.086 155.017 134.644 155.017C134.483 155.007 134.322 155.036 134.175 155.102C134.027 155.167 133.898 155.268 133.797 155.394L133.331 155.033C133.497 154.833 133.707 154.675 133.944 154.571C134.182 154.467 134.441 154.421 134.7 154.435C135.482 154.435 135.988 154.832 135.988 155.469C135.983 155.692 135.926 155.911 135.823 156.109C135.719 156.307 135.572 156.478 135.391 156.609L134.429 157.527L136.123 157.512Z" fill="#263238"/>
<path d="M139.131 156.971C139.131 157.603 138.675 158.13 137.708 158.13C137.222 158.14 136.746 157.994 136.349 157.714L136.635 157.212C136.937 157.446 137.31 157.572 137.693 157.568C138.194 157.568 138.455 157.357 138.455 157.016C138.455 156.674 138.234 156.454 137.487 156.454H136.62L136.805 154.491H138.921V155.053H137.387L137.307 155.886H137.652C138.705 155.866 139.131 156.333 139.131 156.971Z" fill="#263238"/>
<path d="M149.75 157.512V158.08H147.093V157.628L148.521 156.262C148.872 155.931 148.932 155.72 148.932 155.519C148.932 155.188 148.707 155.017 148.266 155.017C148.105 155.007 147.943 155.036 147.796 155.102C147.648 155.167 147.519 155.268 147.418 155.394L146.952 155.033C147.118 154.833 147.328 154.675 147.566 154.571C147.803 154.467 148.062 154.421 148.321 154.435C149.103 154.435 149.609 154.832 149.609 155.469C149.604 155.692 149.547 155.911 149.444 156.109C149.341 156.307 149.193 156.478 149.013 156.609L148.05 157.527L149.75 157.512Z" fill="#263238"/>
<path d="M152.993 156.96C152.99 157.126 152.952 157.289 152.883 157.439C152.814 157.59 152.714 157.724 152.59 157.834C152.466 157.944 152.321 158.027 152.163 158.078C152.006 158.129 151.839 158.147 151.675 158.13C150.672 158.13 150.116 157.497 150.116 156.338C150.116 155.098 150.838 154.42 151.885 154.42C152.215 154.408 152.541 154.488 152.828 154.651L152.582 155.153C152.377 155.028 152.14 154.967 151.9 154.977C151.219 154.977 150.792 155.399 150.792 156.217C150.916 156.088 151.066 155.988 151.232 155.923C151.399 155.858 151.577 155.83 151.755 155.841C151.911 155.825 152.069 155.843 152.218 155.892C152.367 155.941 152.505 156.021 152.621 156.126C152.738 156.232 152.831 156.36 152.895 156.504C152.959 156.648 152.993 156.803 152.993 156.96ZM152.347 156.99C152.347 156.614 152.061 156.378 151.625 156.378C151.536 156.367 151.445 156.375 151.359 156.401C151.274 156.427 151.194 156.47 151.125 156.528C151.057 156.586 151.001 156.657 150.961 156.738C150.921 156.818 150.898 156.906 150.893 156.995C150.893 157.337 151.163 157.603 151.64 157.603C151.727 157.614 151.816 157.607 151.901 157.581C151.985 157.556 152.063 157.513 152.13 157.455C152.197 157.397 152.25 157.326 152.288 157.246C152.325 157.166 152.345 157.079 152.347 156.99Z" fill="#263238"/>
<path d="M163.521 157.512V158.08H160.864V157.628L162.298 156.262C162.644 155.931 162.709 155.72 162.709 155.519C162.709 155.188 162.483 155.017 162.037 155.017C161.877 155.008 161.717 155.038 161.57 155.103C161.424 155.169 161.295 155.268 161.195 155.394L160.724 155.033C160.89 154.833 161.101 154.675 161.34 154.571C161.578 154.467 161.838 154.421 162.097 154.435C162.879 154.435 163.381 154.832 163.381 155.469C163.377 155.693 163.321 155.912 163.217 156.11C163.114 156.308 162.965 156.478 162.784 156.609L161.822 157.527L163.521 157.512Z" fill="#263238"/>
<path d="M166.609 154.47V154.917L165.211 158.08H164.494L165.847 155.037H164.429V155.65H163.807V154.47H166.609Z" fill="#263238"/>
<path d="M177.122 157.512V158.08H174.485V157.628L175.914 156.262C176.265 155.931 176.325 155.72 176.325 155.519C176.325 155.188 176.1 155.017 175.658 155.017C175.497 155.007 175.336 155.036 175.189 155.102C175.041 155.167 174.912 155.268 174.811 155.394L174.345 155.033C174.511 154.833 174.721 154.675 174.958 154.571C175.196 154.467 175.455 154.421 175.714 154.435C176.496 154.435 177.002 154.832 177.002 155.469C176.997 155.692 176.94 155.911 176.837 156.109C176.733 156.307 176.586 156.478 176.405 156.609L175.443 157.527L177.122 157.512Z" fill="white"/>
<path d="M180.436 157.041C180.436 157.714 179.855 158.13 178.957 158.13C178.06 158.13 177.488 157.714 177.488 157.041C177.485 156.856 177.539 156.674 177.642 156.521C177.745 156.367 177.893 156.249 178.065 156.182C177.927 156.111 177.812 156.002 177.733 155.868C177.654 155.734 177.615 155.58 177.619 155.424C177.619 154.807 178.16 154.42 178.957 154.42C179.754 154.42 180.306 154.807 180.306 155.424C180.309 155.582 180.268 155.737 180.186 155.871C180.104 156.005 179.986 156.113 179.845 156.182C180.019 156.247 180.17 156.365 180.276 156.518C180.382 156.672 180.438 156.854 180.436 157.041ZM179.759 157.041C179.759 156.689 179.449 156.464 178.957 156.464C178.466 156.464 178.165 156.689 178.165 157.041C178.165 157.392 178.461 157.623 178.957 157.623C179.454 157.623 179.759 157.387 179.759 157.021V157.041ZM178.255 155.475C178.255 155.786 178.516 155.977 178.937 155.977C179.358 155.977 179.624 155.781 179.624 155.475C179.624 155.168 179.348 154.973 178.937 154.973C178.526 154.973 178.276 155.118 178.276 155.455L178.255 155.475Z" fill="white"/>
<path d="M190.914 157.512V158.08H188.257V157.628L189.691 156.262C190.037 155.931 190.102 155.72 190.102 155.519C190.102 155.188 189.876 155.017 189.43 155.017C189.27 155.008 189.11 155.038 188.963 155.103C188.817 155.169 188.688 155.268 188.588 155.394L188.117 155.033C188.283 154.833 188.494 154.675 188.733 154.571C188.971 154.467 189.231 154.421 189.49 154.435C190.272 154.435 190.774 154.832 190.774 155.469C190.77 155.693 190.714 155.912 190.61 156.11C190.507 156.308 190.358 156.478 190.177 156.609L189.215 157.527L190.914 157.512Z" fill="#263238"/>
<path d="M194.072 156.212C194.072 157.452 193.356 158.13 192.308 158.13C191.977 158.142 191.649 158.062 191.36 157.899L191.606 157.397C191.813 157.522 192.052 157.584 192.293 157.573C192.975 157.573 193.401 157.151 193.401 156.333C193.277 156.462 193.127 156.562 192.961 156.627C192.795 156.692 192.616 156.72 192.438 156.709C192.282 156.726 192.125 156.709 191.976 156.661C191.827 156.612 191.689 156.534 191.572 156.429C191.455 156.325 191.361 156.197 191.296 156.054C191.231 155.912 191.197 155.757 191.195 155.6C191.198 155.434 191.236 155.271 191.305 155.121C191.375 154.97 191.474 154.836 191.598 154.726C191.722 154.616 191.867 154.533 192.025 154.482C192.182 154.431 192.349 154.414 192.513 154.43C193.496 154.42 194.072 155.053 194.072 156.212ZM193.295 155.555C193.295 155.214 193.03 154.942 192.548 154.942C192.461 154.932 192.372 154.94 192.288 154.966C192.204 154.992 192.126 155.036 192.06 155.094C191.993 155.152 191.94 155.224 191.903 155.304C191.867 155.384 191.847 155.472 191.847 155.56C191.847 155.936 192.127 156.172 192.568 156.172C192.657 156.183 192.747 156.175 192.833 156.149C192.918 156.123 192.998 156.08 193.066 156.022C193.134 155.964 193.19 155.893 193.229 155.812C193.269 155.732 193.291 155.644 193.295 155.555Z" fill="#263238"/>
<path d="M204.47 156.996C204.47 157.603 204.009 158.13 203.041 158.13C202.557 158.138 202.084 157.992 201.688 157.714L201.979 157.212C202.279 157.447 202.65 157.573 203.031 157.568C203.533 157.568 203.793 157.357 203.793 157.021C203.793 156.684 203.558 156.484 203.011 156.484H202.68V156.027L203.503 155.053H201.863V154.491H204.32V154.938L203.442 155.982C203.577 155.978 203.711 156.002 203.836 156.052C203.961 156.101 204.075 156.176 204.171 156.27C204.267 156.365 204.343 156.478 204.394 156.602C204.446 156.727 204.472 156.861 204.47 156.996Z" fill="#263238"/>
<path d="M204.906 156.278C204.906 155.088 205.553 154.42 206.41 154.42C207.268 154.42 207.914 155.088 207.914 156.278C207.914 157.468 207.263 158.13 206.41 158.13C205.558 158.13 204.906 157.463 204.906 156.278ZM207.242 156.278C207.242 155.404 206.902 155.003 206.41 155.003C205.919 155.003 205.578 155.404 205.578 156.278C205.578 157.151 205.919 157.548 206.41 157.548C206.902 157.548 207.242 157.126 207.242 156.278Z" fill="#263238"/>
<path d="M121.875 70.7818C121.81 70.7822 121.747 70.757 121.7 70.7115L118.948 67.9555C118.903 67.9089 118.878 67.8468 118.878 67.7824C118.878 67.7179 118.903 67.6558 118.948 67.6092L121.7 64.5068C121.747 64.4608 121.81 64.4351 121.875 64.4351C121.941 64.4351 122.004 64.4608 122.051 64.5068C122.074 64.5301 122.093 64.5579 122.106 64.5885C122.118 64.6191 122.125 64.6519 122.125 64.685C122.125 64.7182 122.118 64.751 122.106 64.7815C122.093 64.8121 122.074 64.8399 122.051 64.8632L119.469 67.7698L122.051 70.3601C122.085 70.3952 122.109 70.4396 122.118 70.4878C122.127 70.5361 122.122 70.586 122.104 70.6314C122.085 70.6769 122.053 70.7158 122.013 70.7434C121.972 70.771 121.924 70.7861 121.875 70.7868V70.7818Z" fill="#263238"/>
<path d="M205.508 70.7822C205.477 70.7828 205.447 70.7774 205.419 70.7662C205.39 70.755 205.364 70.7382 205.342 70.7169C205.318 70.6944 205.299 70.6672 205.286 70.637C205.273 70.6067 205.266 70.5742 205.266 70.5412C205.266 70.5083 205.273 70.4757 205.286 70.4455C205.299 70.4153 205.318 70.3881 205.342 70.3655L207.939 67.4439L205.352 64.8536C205.305 64.8063 205.279 64.7422 205.279 64.6754C205.279 64.6085 205.305 64.5444 205.352 64.4972C205.4 64.4499 205.464 64.4233 205.53 64.4233C205.597 64.4233 205.661 64.4499 205.708 64.4972L208.461 67.2531C208.503 67.3009 208.526 67.3625 208.526 67.4263C208.526 67.4902 208.503 67.5518 208.461 67.5995L205.703 70.6969C205.679 70.7246 205.649 70.7466 205.615 70.7614C205.581 70.7761 205.545 70.7832 205.508 70.7822Z" fill="#263238"/>
<path d="M218.026 177.301C217.951 177.301 217.896 147.392 217.896 110.535C217.896 73.6785 217.951 43.7393 218.026 43.7393C218.101 43.7393 218.157 73.6384 218.157 110.535C218.157 147.432 218.101 177.301 218.026 177.301Z" fill="#263238"/>
<path d="M277.795 70.526C277.795 70.6013 264.575 70.6565 248.272 70.6565C231.968 70.6565 218.743 70.6013 218.743 70.526C218.743 70.4507 231.958 70.3955 248.272 70.3955C264.585 70.3955 277.795 70.4558 277.795 70.526Z" fill="#263238"/>
<path d="M188.297 67.0319C188.297 67.1072 178 67.1624 165.296 67.1624C152.592 67.1624 142.29 67.1072 142.29 67.0319C142.29 66.9566 152.587 66.9014 165.296 66.9014C178.005 66.9014 188.297 66.9616 188.297 67.0319Z" fill="#263238"/>
<path d="M278.337 42.5396H103.978V56.3195H278.337V42.5396Z" fill="#00A1A3"/>
<path d="M184.512 49.4117C184.523 49.111 184.622 48.8202 184.797 48.5756C184.972 48.331 185.215 48.1435 185.496 48.0363C185.777 47.9292 186.083 47.9073 186.376 47.9734C186.669 48.0394 186.936 48.1905 187.144 48.4077L186.803 48.729C186.708 48.6237 186.592 48.5398 186.463 48.4827C186.333 48.4256 186.193 48.3966 186.051 48.3977C185.785 48.3977 185.53 48.5035 185.342 48.6918C185.154 48.88 185.049 49.1354 185.049 49.4017C185.049 49.668 185.154 49.9233 185.342 50.1116C185.53 50.2999 185.785 50.4057 186.051 50.4057C186.193 50.4061 186.334 50.3764 186.463 50.3184C186.593 50.2604 186.709 50.1755 186.803 50.0693L187.144 50.3956C186.936 50.6129 186.669 50.7639 186.376 50.83C186.083 50.896 185.777 50.8741 185.496 50.767C185.215 50.6599 184.972 50.4723 184.797 50.2277C184.622 49.9831 184.523 49.6923 184.512 49.3916V49.4117Z" fill="white"/>
<path d="M189.405 50.2002H187.991L187.711 50.8528H187.174L188.442 48.0215H188.944L190.222 50.8528H189.671L189.405 50.2002ZM189.23 49.7835L188.698 48.5486L188.167 49.7835H189.23Z" fill="white"/>
<path d="M190.593 47.9961H191.12V50.3806H192.599V50.8274H190.593V47.9961Z" fill="white"/>
<path d="M195.135 50.3856V50.8274H193.035V47.9961H195.095V48.4379H193.536V49.1959H194.905V49.6276H193.536V50.4057L195.135 50.3856Z" fill="white"/>
<path d="M198.229 47.9961V50.8274H197.797L196.238 48.9097V50.8274H195.737V47.9961H196.168L197.727 49.9137V47.9961H198.229Z" fill="white"/>
<path d="M198.986 47.9962H200.224C200.42 47.9797 200.617 48.0041 200.802 48.0677C200.988 48.1313 201.159 48.2329 201.303 48.366C201.448 48.499 201.563 48.6607 201.642 48.8407C201.721 49.0208 201.762 49.2152 201.762 49.4119C201.762 49.6085 201.721 49.803 201.642 49.983C201.563 50.163 201.448 50.3247 201.303 50.4578C201.159 50.5908 200.988 50.6924 200.802 50.756C200.617 50.8197 200.42 50.844 200.224 50.8275H198.986V47.9962ZM200.199 50.3807C200.455 50.3807 200.702 50.2787 200.883 50.097C201.064 49.9153 201.166 49.6688 201.166 49.4119C201.166 49.1549 201.064 48.9085 200.883 48.7268C200.702 48.5451 200.455 48.443 200.199 48.443H199.512V50.3807H200.199Z" fill="white"/>
<path d="M204.114 50.2002H202.7L202.425 50.8528H201.883L203.157 48.0215H203.658L204.931 50.8528H204.385L204.114 50.2002ZM203.944 49.7835L203.407 48.5486L202.881 49.7835H203.944Z" fill="white"/>
<path d="M207.157 50.8274L206.571 49.9991H205.824V50.8224H205.322V47.9961H206.485C207.227 47.9961 207.689 48.3776 207.689 49.0001C207.697 49.1965 207.641 49.3903 207.53 49.5523C207.419 49.7143 207.258 49.8358 207.072 49.8987L207.719 50.8274H207.157ZM206.445 48.4429H205.829V49.5674H206.445C206.907 49.5674 207.142 49.3615 207.142 49.0051C207.142 48.6487 206.907 48.4429 206.445 48.4429Z" fill="white"/>
<path d="M113.358 49.432C113.358 49.6643 113.289 49.8914 113.16 50.0846C113.031 50.2778 112.848 50.4284 112.634 50.5173C112.419 50.6062 112.183 50.6294 111.956 50.5841C111.728 50.5388 111.519 50.4269 111.355 50.2626C111.191 50.0983 111.079 49.889 111.034 49.6612C110.989 49.4333 111.012 49.1971 111.101 48.9825C111.19 48.7678 111.34 48.5844 111.533 48.4553C111.726 48.3262 111.953 48.2573 112.185 48.2573C112.496 48.2573 112.794 48.3811 113.014 48.6014C113.234 48.8217 113.358 49.1205 113.358 49.432Z" fill="white"/>
<path d="M116.551 49.432C116.551 49.6643 116.483 49.8914 116.354 50.0846C116.225 50.2778 116.041 50.4284 115.827 50.5173C115.613 50.6062 115.377 50.6294 115.149 50.5841C114.922 50.5388 114.713 50.4269 114.549 50.2626C114.385 50.0983 114.273 49.889 114.228 49.6612C114.182 49.4333 114.206 49.1971 114.294 48.9825C114.383 48.7678 114.534 48.5844 114.726 48.4553C114.919 48.3262 115.146 48.2573 115.378 48.2573C115.532 48.2573 115.685 48.2877 115.827 48.3467C115.969 48.4058 116.099 48.4923 116.208 48.6014C116.317 48.7105 116.403 48.84 116.462 48.9825C116.521 49.125 116.551 49.2777 116.551 49.432Z" fill="white"/>
<path d="M119.84 49.432C119.84 49.6643 119.771 49.8914 119.642 50.0846C119.513 50.2778 119.33 50.4284 119.116 50.5173C118.901 50.6062 118.666 50.6294 118.438 50.5841C118.21 50.5388 118.001 50.4269 117.837 50.2626C117.673 50.0983 117.562 49.889 117.516 49.6612C117.471 49.4333 117.494 49.1971 117.583 48.9825C117.672 48.7678 117.822 48.5844 118.015 48.4553C118.208 48.3262 118.435 48.2573 118.667 48.2573C118.978 48.2573 119.276 48.3811 119.496 48.6014C119.716 48.8217 119.84 49.1205 119.84 49.432Z" fill="white"/>
<path d="M261.076 64.0602C261.076 64.1305 255.341 64.1907 248.272 64.1907C241.203 64.1907 235.463 64.1305 235.463 64.0602C235.463 63.9899 241.193 63.9297 248.272 63.9297C255.351 63.9297 261.076 63.9849 261.076 64.0602Z" fill="#263238"/>
<path d="M228.128 84.1554C226.092 84.3361 224.043 84.3361 222.007 84.1554C224.044 83.9814 226.091 83.9814 228.128 84.1554Z" fill="#263238"/>
<path d="M272.842 75.6968H235.087C233.458 75.6968 232.139 77.0183 232.139 78.6485V101.736C232.139 103.366 233.458 104.687 235.087 104.687H272.842C274.47 104.687 275.79 103.366 275.79 101.736V78.6485C275.79 77.0183 274.47 75.6968 272.842 75.6968Z" fill="#00A1A3"/>
<path d="M252.047 82.1422C252.047 82.2175 248.723 82.2728 244.627 82.2728C240.531 82.2728 237.202 82.2175 237.202 82.1422C237.202 82.0669 240.526 82.0117 244.627 82.0117C248.728 82.0117 252.047 82.072 252.047 82.1422Z" fill="white"/>
<path d="M246.903 84.7629C243.745 84.937 240.581 84.937 237.423 84.7629C240.581 84.5888 243.745 84.5888 246.903 84.7629Z" fill="white"/>
<path d="M272.245 85.1391L271.528 84.3359V82.4283C271.528 81.9824 271.367 81.5515 271.077 81.2136C270.786 80.8757 270.384 80.653 269.944 80.5859V79.7827H269.443V80.5809C268.99 80.6326 268.571 80.8494 268.267 81.19C267.963 81.5307 267.794 81.9714 267.794 82.4283V84.2505L267.097 85.1391H269.002C269.047 85.2594 269.12 85.3669 269.217 85.452C269.313 85.537 269.428 85.5971 269.553 85.6269C269.678 85.6566 269.808 85.6552 269.932 85.6226C270.057 85.5901 270.171 85.5275 270.265 85.4403C270.355 85.357 270.423 85.2539 270.466 85.1391H272.245Z" fill="white"/>
<path d="M228.449 108.477H221.711C220.664 108.477 219.816 109.327 219.816 110.375V125.932C219.816 126.98 220.664 127.829 221.711 127.829H228.449C229.495 127.829 230.344 126.98 230.344 125.932V110.375C230.344 109.327 229.495 108.477 228.449 108.477Z" fill="#EBEBEB"/>
<path d="M223.772 111.534V115.139H223.115V112.091H222.353V111.534H223.772Z" fill="#263238"/>
<path d="M227.206 111.534V111.981L225.802 115.139H225.09L226.444 112.101H225.025V112.714H224.403V111.534H227.206Z" fill="#263238"/>
<path d="M228.128 116.966C226.091 117.14 224.044 117.14 222.007 116.966C224.044 116.792 226.091 116.792 228.128 116.966Z" fill="#263238"/>
<path d="M272.842 108.477H235.087C233.458 108.477 232.139 109.799 232.139 111.429V123.788C232.139 125.418 233.458 126.74 235.087 126.74H272.842C274.47 126.74 275.79 125.418 275.79 123.788V111.429C275.79 109.799 274.47 108.477 272.842 108.477Z" fill="#455A64"/>
<path d="M252.047 114.928C252.047 114.998 248.723 115.058 244.627 115.058C240.531 115.058 237.202 114.998 237.202 114.928C237.202 114.858 240.526 114.797 244.627 114.797C248.728 114.797 252.047 114.853 252.047 114.928Z" fill="white"/>
<path d="M246.903 117.549C243.745 117.723 240.581 117.723 237.423 117.549C240.581 117.374 243.745 117.374 246.903 117.549Z" fill="white"/>
<path d="M272.245 118.547L271.548 117.749V115.841C271.549 115.395 271.389 114.964 271.098 114.626C270.807 114.288 270.405 114.065 269.964 113.999V113.191H269.463V113.994C269.01 114.046 268.591 114.263 268.287 114.603C267.983 114.944 267.814 115.385 267.814 115.841V117.659L267.117 118.552H269.022C269.078 118.701 269.178 118.83 269.309 118.92C269.439 119.011 269.595 119.06 269.754 119.06C269.913 119.06 270.068 119.011 270.199 118.92C270.33 118.83 270.43 118.701 270.486 118.552L272.245 118.547Z" fill="white"/>
<path d="M228.449 129.792H221.711C220.664 129.792 219.816 130.642 219.816 131.69V168.331C219.816 169.379 220.664 170.228 221.711 170.228H228.449C229.495 170.228 230.344 169.379 230.344 168.331V131.69C230.344 130.642 229.495 129.792 228.449 129.792Z" fill="#EBEBEB"/>
<path d="M225.12 135.886V136.454H222.463V136.007L223.897 134.642C224.243 134.31 224.308 134.099 224.308 133.894C224.308 133.567 224.082 133.392 223.636 133.392C223.476 133.382 223.316 133.412 223.169 133.477C223.023 133.543 222.894 133.642 222.794 133.768L222.323 133.407C222.489 133.207 222.7 133.049 222.939 132.945C223.177 132.841 223.437 132.795 223.696 132.809C224.478 132.809 224.98 133.206 224.98 133.843C224.976 134.067 224.919 134.286 224.816 134.484C224.712 134.682 224.564 134.852 224.383 134.983L223.42 135.902L225.12 135.886Z" fill="#263238"/>
<path d="M228.444 135.414C228.444 136.087 227.862 136.504 226.965 136.504C226.068 136.504 225.501 136.087 225.501 135.414C225.498 135.229 225.551 135.048 225.655 134.894C225.758 134.741 225.905 134.623 226.078 134.556C225.938 134.486 225.822 134.377 225.742 134.243C225.662 134.108 225.622 133.954 225.626 133.798C225.626 133.18 226.168 132.794 226.965 132.794C227.762 132.794 228.314 133.18 228.314 133.798C228.318 133.955 228.278 134.11 228.197 134.244C228.116 134.378 227.998 134.487 227.857 134.556C228.032 134.621 228.181 134.739 228.286 134.892C228.391 135.046 228.446 135.228 228.444 135.414ZM227.772 135.414C227.772 135.063 227.461 134.837 226.965 134.837C226.469 134.837 226.173 135.063 226.173 135.414C226.173 135.766 226.474 135.997 226.965 135.997C227.456 135.997 227.772 135.761 227.772 135.394V135.414ZM226.268 133.848C226.268 134.159 226.524 134.35 226.945 134.35C227.366 134.35 227.637 134.154 227.637 133.848C227.637 133.542 227.361 133.346 226.945 133.346C226.529 133.346 226.288 133.502 226.288 133.828L226.268 133.848Z" fill="#263238"/>
<path d="M228.128 138.256C226.091 138.43 224.044 138.43 222.007 138.256C224.044 138.082 226.091 138.082 228.128 138.256Z" fill="#263238"/>
<path d="M272.842 129.792H235.087C233.458 129.792 232.139 131.114 232.139 132.744V167.276C232.139 168.907 233.458 170.228 235.087 170.228H272.842C274.47 170.228 275.79 168.907 275.79 167.276V132.744C275.79 131.114 274.47 129.792 272.842 129.792Z" fill="#00A1A3"/>
<path d="M252.047 136.238C252.047 136.313 248.723 136.368 244.627 136.368C240.531 136.368 237.202 136.313 237.202 136.238C237.202 136.163 240.526 136.107 244.627 136.107C248.728 136.107 252.047 136.168 252.047 136.238Z" fill="white"/>
<path d="M246.903 138.858C243.745 139.032 240.581 139.032 237.423 138.858C240.581 138.684 243.745 138.684 246.903 138.858Z" fill="white"/>
<path d="M272.245 139.862L271.528 139.054V137.141C271.528 136.695 271.367 136.264 271.077 135.926C270.786 135.589 270.384 135.366 269.944 135.299V134.496H269.443V135.294C268.989 135.347 268.571 135.564 268.266 135.906C267.962 136.247 267.794 136.689 267.794 137.146V138.963L267.097 139.852H269.002C269.047 139.972 269.121 140.079 269.217 140.164C269.313 140.249 269.428 140.309 269.553 140.339C269.677 140.369 269.807 140.368 269.931 140.337C270.055 140.305 270.17 140.244 270.265 140.158C270.354 140.072 270.422 139.968 270.466 139.852L272.245 139.862Z" fill="white"/>
<path d="M269.964 156.122C269.964 156.193 262.86 156.253 254.092 156.253C245.324 156.253 238.22 156.193 238.22 156.122C238.22 156.052 245.324 155.992 254.092 155.992C262.86 155.992 269.964 156.022 269.964 156.122Z" fill="white"/>
<path d="M251.375 162.949C251.375 163.02 248.432 163.08 244.797 163.08C241.163 163.08 238.22 163.02 238.22 162.949C238.22 162.879 241.163 162.819 244.797 162.819C248.432 162.819 251.375 162.874 251.375 162.949Z" fill="white"/>
<path d="M269.964 159.345C269.964 159.415 262.86 159.475 254.092 159.475C245.324 159.475 238.22 159.415 238.22 159.345C238.22 159.275 245.324 159.214 254.092 159.214C262.86 159.214 269.964 159.275 269.964 159.345Z" fill="white"/>
<path d="M337.544 228.972C337.544 229.043 266.555 229.103 179.007 229.103C91.4595 229.103 20.4507 229.043 20.4507 228.972C20.4507 228.902 91.4244 228.842 179.007 228.842C266.59 228.842 337.544 228.912 337.544 228.972Z" fill="#263238"/>
<path d="M116.195 162.849L113.107 166.162C113.107 166.162 99.9221 187.578 98.3329 189.254C97.3302 190.314 94.8235 191.689 91.5548 192.005C89.6949 192.186 84.7969 188.426 84.7969 188.426L89.0833 175.238L93.9562 173.898L107.126 158.632L116.195 162.849Z" fill="#FFBE9D"/>
<path d="M113.724 165.464C114.822 164.144 117.649 161.423 117.649 161.423L118.837 160.138C118.891 160.243 118.935 160.352 118.968 160.465C119.018 160.682 119.124 160.882 119.273 161.047C119.446 161.167 119.652 161.232 119.863 161.232C120.073 161.232 120.279 161.167 120.452 161.047C120.827 160.832 121.14 160.523 121.361 160.15C121.582 159.778 121.703 159.354 121.712 158.921C121.721 158.488 121.618 158.06 121.413 157.679C121.208 157.297 120.908 156.976 120.542 156.745C120.473 156.511 120.361 156.293 120.211 156.102C119.208 154.802 116.827 154.973 116.827 154.973L117.183 154.471C117.183 154.471 118.797 153.467 121.489 155.168C121.889 155.429 122.371 155.535 122.843 155.465C122.988 155.448 123.128 155.4 123.253 155.324C123.377 155.247 123.484 155.145 123.565 155.023C123.956 154.355 123.59 153.903 121.926 152.814C120.261 151.725 118.296 151.228 117.048 151.695C116.463 151.895 115.893 152.136 115.343 152.417C115.343 152.417 118.281 147.674 118.456 147.362C118.958 146.474 118.983 145.5 118.421 145.108C118.06 144.852 117.419 144.802 116.807 145.821C116.27 146.7 109.653 155.033 109.653 155.033L106.941 158.893L113.724 165.464Z" fill="#FFBE9D"/>
<path d="M107.928 159.044C108.163 159.235 108.452 159.348 108.754 159.367C109.056 159.386 109.356 159.31 109.613 159.149C110.154 158.873 110.58 158.421 111.117 158.105C112.666 157.156 114.777 157.543 116.276 156.524C116.486 156.383 116.697 156.142 116.601 155.906C116.506 155.67 116.23 155.645 116 155.64L109.984 155.389" fill="#FFBE9D"/>
<path d="M109.984 155.389C110.199 155.349 110.417 155.336 110.636 155.349C111.052 155.349 111.638 155.349 112.405 155.349L115.027 155.419L115.784 155.445C116.094 155.409 116.404 155.496 116.652 155.686C116.719 155.762 116.761 155.858 116.773 155.959C116.784 156.06 116.765 156.163 116.717 156.253C116.637 156.398 116.526 156.523 116.391 156.619C116.145 156.784 115.883 156.924 115.609 157.036C114.496 157.463 113.388 157.483 112.45 157.719C112.005 157.821 111.577 157.99 111.182 158.221C110.821 158.431 110.51 158.723 110.179 158.918C109.947 159.123 109.673 159.274 109.375 159.361C109.078 159.448 108.766 159.468 108.46 159.42C108.019 159.305 107.893 159.059 107.908 159.059C108.085 159.17 108.28 159.248 108.485 159.29C108.767 159.311 109.05 159.273 109.317 159.179C109.583 159.085 109.828 158.936 110.034 158.743C110.355 158.475 110.69 158.223 111.037 157.99C111.45 157.741 111.9 157.558 112.37 157.448C113.373 157.186 114.456 157.151 115.478 156.75C115.729 156.652 115.967 156.528 116.19 156.378C116.391 156.238 116.501 156.032 116.401 155.942C116.301 155.851 116.03 155.816 115.774 155.806L115.017 155.771L112.395 155.625C111.648 155.58 111.047 155.535 110.631 155.5C110.411 155.492 110.193 155.455 109.984 155.389Z" fill="#EB996E"/>
<path d="M116.752 154.958C116.985 154.654 117.283 154.407 117.624 154.235C118.004 154.063 118.431 154.02 118.837 154.114C119.332 154.239 119.804 154.441 120.236 154.712C120.683 154.996 121.158 155.231 121.655 155.415C122.072 155.566 122.522 155.604 122.958 155.525C123.108 155.494 123.249 155.429 123.37 155.335C123.49 155.241 123.588 155.12 123.655 154.983C123.708 154.886 123.73 154.776 123.72 154.667C123.72 154.667 123.675 154.772 123.575 154.943C123.504 155.057 123.409 155.155 123.296 155.23C123.184 155.304 123.056 155.354 122.923 155.374C122.516 155.424 122.103 155.372 121.72 155.224C121.243 155.03 120.783 154.794 120.346 154.521C119.893 154.241 119.397 154.036 118.877 153.914C118.439 153.819 117.982 153.873 117.579 154.069C117.312 154.203 117.083 154.401 116.912 154.646C116.833 154.735 116.778 154.842 116.752 154.958Z" fill="#EB996E"/>
<path d="M118.647 147.016C118.426 147.315 118.229 147.631 118.055 147.96L116.697 150.254L115.298 152.533C115.083 152.835 114.897 153.156 114.741 153.492C115.003 153.224 115.233 152.928 115.428 152.608C115.824 152.046 116.346 151.253 116.882 150.359C117.419 149.466 117.885 148.633 118.196 148.025C118.383 147.706 118.534 147.368 118.647 147.016Z" fill="#EB996E"/>
<path d="M117.178 156.69C117.288 156.725 117.403 156.746 117.519 156.75C117.666 156.761 117.81 156.803 117.939 156.874C118.069 156.945 118.182 157.043 118.271 157.162C118.318 157.245 118.343 157.339 118.343 157.435C118.343 157.531 118.318 157.625 118.271 157.709C118.157 157.922 118.015 158.12 117.85 158.296C117.643 158.52 117.522 158.81 117.509 159.114C117.524 159.28 117.578 159.44 117.665 159.582C117.752 159.724 117.87 159.844 118.01 159.933C118.15 160.017 118.306 160.072 118.468 160.094C118.63 160.117 118.795 160.106 118.953 160.063C119.244 159.992 119.508 159.834 119.71 159.611C120.01 159.24 120.254 158.825 120.432 158.381C120.56 158.085 120.639 157.77 120.667 157.448C120.683 157.329 120.664 157.209 120.612 157.101C120.596 157.215 120.586 157.329 120.582 157.443C120.524 157.748 120.425 158.043 120.286 158.321C120.097 158.737 119.852 159.125 119.559 159.476C119.384 159.672 119.149 159.805 118.891 159.855C118.633 159.904 118.365 159.866 118.131 159.747C118.019 159.677 117.925 159.582 117.856 159.47C117.787 159.358 117.746 159.231 117.734 159.099C117.744 158.847 117.844 158.607 118.015 158.422C118.186 158.227 118.331 158.011 118.446 157.779C118.499 157.668 118.523 157.545 118.515 157.422C118.507 157.299 118.468 157.18 118.401 157.076C118.297 156.944 118.164 156.838 118.011 156.766C117.859 156.695 117.692 156.66 117.524 156.665C117.408 156.649 117.29 156.658 117.178 156.69Z" fill="#EB996E"/>
<path d="M118.963 159.872C118.963 159.872 118.867 159.947 118.827 160.153C118.802 160.302 118.811 160.454 118.856 160.598C118.9 160.742 118.978 160.873 119.083 160.981C119.245 161.137 119.444 161.247 119.661 161.301C119.878 161.356 120.106 161.353 120.321 161.293C120.839 161.138 121.278 160.792 121.55 160.324C121.822 159.871 121.95 159.345 121.916 158.818C121.878 158.386 121.727 157.973 121.479 157.618C121.316 157.381 121.11 157.177 120.873 157.016C120.702 156.905 120.597 156.87 120.587 156.88C120.878 157.117 121.135 157.394 121.349 157.703C121.564 158.043 121.688 158.432 121.71 158.833C121.738 159.321 121.615 159.807 121.359 160.223C121.118 160.645 120.728 160.962 120.266 161.112C120.083 161.169 119.888 161.178 119.7 161.138C119.513 161.099 119.338 161.012 119.193 160.886C119.098 160.795 119.024 160.685 118.976 160.563C118.927 160.441 118.906 160.309 118.913 160.178C118.923 159.977 118.983 159.877 118.963 159.872Z" fill="#EB996E"/>
<path d="M113.749 161.057C113.749 161.057 113.608 160.901 113.288 160.786C112.849 160.635 112.373 160.635 111.934 160.786L112.064 160.931C112.17 160.702 112.264 160.467 112.345 160.228C112.658 159.404 112.738 158.51 112.576 157.643C112.516 158.493 112.368 159.334 112.135 160.153C112.054 160.399 111.964 160.625 111.874 160.836L111.769 161.067L112.004 160.981C112.404 160.834 112.839 160.81 113.253 160.911C113.563 160.986 113.734 161.082 113.749 161.057Z" fill="#EB996E"/>
<path d="M118.767 153C118.712 153 118.687 153.446 118.998 153.883C119.309 154.32 119.735 154.445 119.75 154.385C119.765 154.325 119.439 154.129 119.178 153.748C118.918 153.366 118.837 152.99 118.767 153Z" fill="#EB996E"/>
<path d="M92.0511 201.232L86.5364 191.553L88.7774 177.924C90.1367 173.422 89.8197 168.58 87.885 164.295L80.3249 149.626L73.577 147.222L59.3291 145.58C56.8702 146.055 54.4478 146.702 52.0798 147.518C48.1393 148.828 46.1289 150.861 44.0033 154.435L51.4932 190.69C51.4932 190.69 45.407 205.936 46.4799 214.65L92.0511 201.232Z" fill="#00A1A3"/>
<path d="M79.0715 149.245C79.0715 149.245 87.9301 151.207 91.1587 163.301L95.1343 176.202L87.8649 176.649L79.0715 149.245Z" fill="#00A1A3"/>
<path d="M88.5217 177.066C88.5581 177.01 88.5852 176.949 88.6019 176.885C88.647 176.765 88.7222 176.589 88.7974 176.353C88.9943 175.687 89.1187 175.002 89.1684 174.31C89.2847 172.016 88.8172 169.731 87.8098 167.668C87.519 167.061 87.1982 166.489 86.8723 165.951C86.5464 165.414 86.2456 164.887 85.9749 164.38C85.4823 163.487 85.0744 162.549 84.7567 161.579C84.481 160.751 84.2854 160.073 84.14 159.606C84.0749 159.39 84.0197 159.21 83.9746 159.069C83.9584 159.005 83.9348 158.942 83.9044 158.883C83.9077 158.95 83.9195 159.016 83.9395 159.079L84.0749 159.626C84.1952 160.098 84.3757 160.786 84.6314 161.634C84.9364 162.618 85.336 163.569 85.8245 164.476C86.0952 164.978 86.4011 165.515 86.7169 166.057C87.0327 166.599 87.3536 167.161 87.6394 167.764C88.6363 169.806 89.1183 172.063 89.0431 174.335C89.0012 175.021 88.8955 175.702 88.7272 176.368C88.6474 176.597 88.5788 176.83 88.5217 177.066Z" fill="#263238"/>
<path d="M86.376 175.7L90.497 168.085C90.6305 167.837 90.8288 167.629 91.0707 167.485C91.3126 167.341 91.5891 167.266 91.8706 167.267H121.209C121.493 167.266 121.772 167.344 122.016 167.491C122.26 167.638 122.459 167.848 122.592 168.1L93.515 187.678L80.6508 189.154C80.5187 188.893 80.4498 188.605 80.4498 188.313C80.4498 188.021 80.5187 187.733 80.6508 187.472L86.376 175.7Z" fill="#263238"/>
<g opacity="0.3">
<path d="M55.3535 193.11C60.5072 190.861 66.4279 190.534 71.2758 187.683C73.1257 186.589 74.7851 185.173 76.6601 184.139C78.5351 183.105 80.8563 182.548 82.8566 183.341C84.8569 184.134 86.3659 187.136 85.3332 189.023C84.9371 190.027 83.0421 190.971 81.9642 190.876C80.8864 190.78 79.8737 190.344 78.8008 190.203C76.5047 189.912 74.2888 191.052 72.2233 192.086C67.7562 194.319 63.1414 196.242 58.4116 197.844C57.3087 198.215 56.1456 198.576 54.9925 198.406C53.8394 198.235 52.7064 197.362 52.6312 196.197C52.536 194.731 54.0099 193.697 55.3535 193.11Z" fill="black"/>
</g>
<path d="M80.6458 189.139L90.9331 168.968C91.0676 168.705 91.2722 168.483 91.5242 168.328C91.7763 168.173 92.0661 168.091 92.3619 168.09H122.733L111.418 188.496L80.6458 189.139Z" fill="#455A64"/>
<path d="M104.449 175.349C104.295 175.476 104.107 175.555 103.908 175.574C103.709 175.594 103.509 175.554 103.333 175.458C103.157 175.363 103.014 175.218 102.921 175.04C102.829 174.863 102.791 174.662 102.813 174.463C102.836 174.264 102.917 174.077 103.046 173.924C103.176 173.772 103.348 173.662 103.541 173.608C103.733 173.554 103.937 173.56 104.127 173.623C104.316 173.686 104.483 173.805 104.605 173.963C104.763 174.169 104.835 174.429 104.806 174.687C104.777 174.946 104.649 175.183 104.449 175.349Z" fill="#EBEBEB"/>
<path d="M77.728 178.617L80.7811 176.252C81.4011 175.483 82.1853 174.862 83.0763 174.435C83.9672 174.009 84.9423 173.787 85.9298 173.788H87.5943L88.7323 175.068C88.7323 175.068 96.879 175.424 97.1798 176.428V176.754V176.945L90.2062 177.412C90.2062 177.412 96.137 177.412 96.4929 177.412C96.8489 177.412 98.1473 177.312 98.1223 178.009C98.0972 178.582 97.4204 179.013 96.3977 179.184C95.9766 179.244 90.8379 179.686 90.8379 179.686L96.4929 179.636C97.1296 179.636 97.0494 180.64 96.6684 180.775C96.3726 180.876 89.1484 182.994 89.1484 182.994C89.1484 182.994 90.3666 183.813 91.3593 183.737C92.3519 183.662 94.0565 182.387 94.4124 182.994C94.7683 183.602 94.6931 183.953 94.4826 184.094C93.4091 184.696 92.2931 185.22 91.1437 185.66C90.3666 185.871 83.9897 186.885 83.9897 186.885L78.7006 186.202L77.728 178.617Z" fill="#FFBE9D"/>
<path d="M91.5046 175.163C90.555 175.072 89.6007 175.039 88.647 175.063C87.6923 175.027 86.7362 175.05 85.7844 175.133C86.7353 175.231 87.6916 175.266 88.647 175.239C89.6002 175.275 90.5547 175.25 91.5046 175.163Z" fill="#EB996E"/>
<path d="M77.728 178.617L55.2933 182.894L53.0423 154.646C53.0423 154.646 49.4879 149.626 46.2844 153.105C43.0809 156.584 41.9829 162.076 42.1885 164.149C42.394 166.222 42.8001 188.878 44.4946 192.964C46.8559 198.672 52.912 198.365 54.6065 197.949C56.301 197.532 80.4302 186.107 80.4302 186.107L77.728 178.617Z" fill="#FFBE9D"/>
<path d="M53.8696 154.501C54.6567 160.881 56.2108 170.64 56.296 177.091C56.296 177.352 40.87 178.642 40.87 178.642C40.87 178.642 41.3713 165.233 41.9529 160.811C42.6146 155.791 44.244 154.079 44.244 154.079L48.9465 150.369L53.8696 154.501Z" fill="#00A1A3"/>
<path d="M40.87 178.617H41.1808L42.0782 178.546L45.372 178.245L56.3111 177.176H56.4113V177.076C56.4113 176.88 56.3863 176.664 56.3712 176.453C56.0604 172.01 55.7746 167.989 55.5691 165.053C55.4588 163.612 55.3686 162.437 55.3034 161.604C55.2683 161.207 55.2432 160.896 55.2232 160.665C55.2177 160.555 55.2026 160.446 55.178 160.339C55.1714 160.448 55.1714 160.556 55.178 160.665C55.178 160.901 55.178 161.212 55.2232 161.609C55.2733 162.442 55.3385 163.617 55.4237 165.063C55.6142 167.999 55.8749 172.02 56.1607 176.463C56.1607 176.679 56.1907 176.895 56.2058 177.091L56.296 176.98L45.367 178.11L42.0782 178.476L41.1858 178.587C41.0799 178.588 40.9743 178.598 40.87 178.617Z" fill="#263238"/>
<path d="M90.8228 162.146C90.8228 162.226 89.5143 162.236 87.9652 162.648C86.4161 163.06 85.253 163.652 85.2129 163.562C86.8748 162.481 88.8479 161.983 90.8228 162.146Z" fill="white"/>
<path d="M55.5792 169.214C55.4783 169.258 55.3744 169.295 55.2683 169.325C54.9657 169.409 54.6574 169.471 54.3459 169.51C52.6426 169.72 50.9202 169.32 49.4828 168.381C48.0454 167.442 46.9854 166.025 46.49 164.38C46.3323 163.875 46.2578 163.348 46.2694 162.819C46.2739 162.257 46.4317 161.706 46.7256 161.227C46.8847 160.978 47.0991 160.769 47.3522 160.617C47.6053 160.465 47.8901 160.373 48.1845 160.349C48.7632 160.334 49.3291 160.521 49.7861 160.877C50.243 161.233 50.5628 161.736 50.6912 162.302C50.8953 163.34 50.6963 164.417 50.1347 165.314C49.6874 166.065 49.083 166.71 48.3629 167.205C47.6429 167.7 46.8243 168.032 45.9636 168.18C44.8075 168.405 43.61 168.256 42.5445 167.753C42.2619 167.612 41.9933 167.444 41.7424 167.251C41.6525 167.189 41.5715 167.115 41.5017 167.031C41.8488 167.267 42.2124 167.478 42.5896 167.663C43.6436 168.115 44.8107 168.232 45.9335 167.999C46.7641 167.848 47.5523 167.518 48.2444 167.034C48.9365 166.55 49.5163 165.922 49.9442 165.193C50.4577 164.35 50.6366 163.345 50.4455 162.377C50.3291 161.874 50.0445 161.425 49.6388 161.105C49.2331 160.786 48.7307 160.615 48.2146 160.62C47.9599 160.64 47.7134 160.719 47.4943 160.851C47.2752 160.982 47.0893 161.163 46.9512 161.378C46.6847 161.817 46.541 162.32 46.5351 162.834C46.542 163.827 46.8026 164.801 47.2921 165.665C48.0919 167.167 49.4001 168.335 50.9819 168.958C52.0507 169.371 53.2006 169.529 54.3409 169.42C55.1681 169.335 55.5741 169.174 55.5792 169.214Z" fill="white"/>
<path d="M86.0201 165.721C85.8418 165.85 85.6541 165.966 85.4586 166.067C84.8977 166.361 84.2962 166.569 83.6739 166.685C82.674 166.873 81.6439 166.825 80.6659 166.544C79.3786 166.158 78.2399 165.387 77.4022 164.335C76.9104 163.728 76.5455 163.028 76.3294 162.277C76.2132 161.871 76.1775 161.447 76.2241 161.027C76.2712 160.585 76.4453 160.167 76.7254 159.822C77.0191 159.455 77.4098 159.179 77.853 159.023C78.2962 158.868 78.774 158.84 79.2321 158.944C79.5972 159.041 79.935 159.222 80.2195 159.471C80.504 159.72 80.7275 160.031 80.8729 160.38C81.0182 160.729 81.0815 161.107 81.0577 161.485C81.034 161.863 80.924 162.23 80.7361 162.558C80.486 163.009 80.1444 163.402 79.7334 163.713C78.861 164.322 77.8374 164.678 76.7755 164.742C74.6248 164.938 72.4891 164.24 70.2883 164.064C69.2094 163.942 68.117 164.069 67.0948 164.436C66.1088 164.812 65.2856 165.522 64.7686 166.444C64.5288 166.887 64.4095 167.385 64.4227 167.889C64.4468 168.38 64.6026 168.855 64.8739 169.265C65.135 169.665 65.4839 170 65.894 170.244C66.3041 170.489 66.7645 170.636 67.2402 170.675C68.1476 170.731 69.1302 170.254 69.3809 169.405C69.4981 168.991 69.4841 168.551 69.3408 168.145C69.2082 167.741 69.0045 167.364 68.7392 167.031C67.6739 165.853 66.2262 165.092 64.6533 164.882C63.3589 164.689 62.0401 164.737 60.763 165.023C59.7936 165.233 58.8403 165.511 57.9104 165.856C57.1433 166.137 56.5568 166.358 56.1557 166.529L55.6945 166.705C55.6448 166.729 55.5927 166.747 55.5391 166.76C55.5391 166.76 55.5842 166.73 55.6844 166.68L56.1357 166.479C56.5267 166.308 57.1383 166.057 57.8753 165.761C58.8043 165.395 59.7595 165.099 60.7329 164.877C62.0277 164.576 63.367 164.516 64.6834 164.702C66.3076 164.907 67.8057 165.685 68.9096 166.895C69.1918 167.248 69.4107 167.647 69.5563 168.075C69.7143 168.526 69.73 169.015 69.6015 169.476C69.4472 169.953 69.1125 170.351 68.669 170.585C68.2288 170.826 67.731 170.94 67.2302 170.916C66.7156 170.879 66.2165 170.724 65.7714 170.463C65.3264 170.202 64.9472 169.842 64.6633 169.41C64.3634 168.963 64.1901 168.443 64.162 167.904C64.1443 167.357 64.2723 166.815 64.533 166.333C65.0804 165.366 65.9473 164.621 66.9845 164.225C68.0445 163.842 69.1783 163.708 70.2983 163.833C72.5443 164.019 74.6599 164.707 76.7455 164.516C77.7599 164.46 78.7387 164.123 79.573 163.542C79.9712 163.282 80.2951 162.922 80.5131 162.499C80.731 162.076 80.8355 161.603 80.8163 161.127C80.777 160.687 80.6059 160.27 80.3255 159.929C80.0452 159.588 79.6686 159.339 79.2449 159.216C78.8213 159.093 78.3704 159.101 77.9513 159.239C77.5322 159.376 77.1643 159.637 76.8959 159.988C76.6571 160.309 76.4984 160.682 76.433 161.077C76.3676 161.471 76.3974 161.876 76.5199 162.257C76.727 162.988 77.0762 163.67 77.5476 164.265C78.2525 165.173 79.1906 165.873 80.2618 166.288C81.3329 166.704 82.4968 166.82 83.6288 166.624C84.4729 166.467 85.2825 166.161 86.0201 165.721Z" fill="white"/>
<g opacity="0.3">
<path d="M55.1179 179.26C55.1179 179.26 56.1907 178.978 56.8525 178.783C57.2146 178.638 57.5386 178.413 57.7994 178.123C58.0602 177.833 58.2509 177.487 58.3565 177.111C58.4041 176.795 58.3887 176.472 58.3114 176.162C57.4992 171.73 56.682 167.287 55.5139 162.935C55.543 167.114 55.8159 171.287 56.3311 175.434C56.368 175.978 56.368 176.523 56.3311 177.066L54.9274 177.307L55.1179 179.26Z" fill="black"/>
</g>
<path d="M119.629 224.931C119.629 224.931 124.603 226.011 129.044 225.343C133.206 224.716 142.525 225.343 142.525 230.865C142.525 236.989 130.092 235.473 125.244 234.505C120.396 233.536 115.564 232.652 115.564 232.652L119.629 224.931Z" fill="#455A64"/>
<path d="M130.794 232.783C131.067 232.094 131.267 231.379 131.391 230.649C131.594 229.937 131.718 229.205 131.762 228.465C131.483 229.152 131.282 229.868 131.16 230.599C130.96 231.311 130.837 232.044 130.794 232.783Z" fill="#263238"/>
<path d="M129.095 232.863C129.314 232.151 129.455 231.417 129.516 230.674C129.655 229.945 129.717 229.203 129.701 228.46C129.482 229.171 129.341 229.903 129.28 230.644C129.141 231.375 129.079 232.119 129.095 232.863Z" fill="#263238"/>
<path d="M127.46 232.22C127.767 230.962 127.922 229.671 127.922 228.375C127.608 229.632 127.453 230.924 127.46 232.22Z" fill="#263238"/>
<path d="M124.883 231.578C125.459 230.544 125.744 229.373 125.706 228.189C125.53 228.743 125.393 229.309 125.295 229.881C125.12 230.437 124.983 231.004 124.883 231.578Z" fill="#263238"/>
<path d="M124.352 229.339C124.138 229.296 123.918 229.282 123.7 229.299C123.104 229.317 122.515 229.432 121.956 229.64C121.76 229.706 121.577 229.805 121.414 229.931C121.319 230.002 121.239 230.092 121.181 230.196C121.123 230.3 121.088 230.415 121.078 230.534C121.09 230.666 121.13 230.793 121.195 230.909C121.26 231.024 121.349 231.124 121.456 231.202C121.563 231.28 121.685 231.334 121.814 231.361C121.944 231.387 122.077 231.386 122.206 231.357C122.735 231.211 123.196 230.882 123.505 230.428C124.019 229.76 124.313 228.949 124.346 228.106C124.38 227.263 124.15 226.431 123.69 225.725C123.595 225.611 123.464 225.533 123.319 225.504C123.245 225.494 123.17 225.5 123.099 225.523C123.028 225.545 122.963 225.583 122.908 225.634C122.73 225.814 122.62 226.05 122.597 226.302C122.542 226.717 122.564 227.14 122.663 227.547C122.802 228.134 123.091 228.675 123.5 229.118C123.613 229.235 123.736 229.342 123.866 229.439C123.909 229.478 123.958 229.508 124.011 229.53C124.011 229.53 123.836 229.374 123.57 229.058C123.203 228.609 122.948 228.079 122.828 227.512C122.743 227.124 122.731 226.724 122.793 226.332C122.815 226.129 122.903 225.938 123.044 225.79C123.079 225.756 123.122 225.731 123.169 225.717C123.216 225.703 123.266 225.699 123.314 225.707C123.362 225.715 123.408 225.733 123.448 225.762C123.488 225.79 123.521 225.827 123.545 225.87C123.83 226.304 124.022 226.792 124.108 227.303C124.195 227.815 124.173 228.339 124.046 228.842C123.922 229.367 123.688 229.86 123.359 230.288C123.085 230.697 122.678 230.999 122.206 231.141C122.108 231.165 122.006 231.169 121.907 231.151C121.807 231.133 121.713 231.094 121.629 231.038C121.545 230.981 121.474 230.907 121.421 230.821C121.368 230.735 121.333 230.639 121.319 230.539C121.325 230.447 121.351 230.358 121.395 230.277C121.44 230.197 121.501 230.126 121.575 230.072C121.726 229.953 121.895 229.86 122.076 229.796C122.617 229.581 123.186 229.444 123.766 229.389C124.101 229.354 124.352 229.359 124.352 229.339Z" fill="#263238"/>
<path d="M116.055 231.839L116.18 231.879L116.556 231.969L117.995 232.301C119.253 232.577 121.068 232.963 123.329 233.4C125.59 233.837 128.292 234.329 131.321 234.746C132.906 235.003 134.515 235.083 136.118 234.981C136.97 234.927 137.812 234.767 138.625 234.505C139.041 234.362 139.444 234.182 139.828 233.967C140.232 233.749 140.592 233.458 140.891 233.109C141.058 232.963 141.203 232.794 141.322 232.607C141.555 232.205 141.698 231.757 141.742 231.295C141.786 230.832 141.73 230.365 141.578 229.926C141.278 229.08 140.72 228.35 139.984 227.838C139.292 227.347 138.527 226.967 137.718 226.714C137.321 226.603 136.935 226.468 136.539 226.377C136.143 226.287 135.757 226.191 135.371 226.136C132.253 225.634 129.42 225.895 127.064 225.895C125.881 225.92 124.813 225.895 123.881 225.83C123.082 225.775 122.287 225.674 121.499 225.529L120.642 225.348L120.025 225.172L119.644 225.067C119.601 225.051 119.555 225.041 119.509 225.037L119.634 225.087L120.01 225.218L120.622 225.418L121.479 225.619C122.269 225.783 123.067 225.897 123.871 225.961C124.808 226.031 125.876 226.076 127.064 226.066C129.425 226.066 132.258 225.855 135.331 226.357C135.717 226.412 136.098 226.518 136.489 226.593C136.88 226.668 137.251 226.819 137.642 226.929C138.429 227.178 139.172 227.549 139.843 228.029C140.537 228.512 141.063 229.2 141.347 229.997C141.488 230.403 141.541 230.835 141.501 231.264C141.461 231.693 141.33 232.108 141.117 232.482C141.008 232.654 140.877 232.811 140.726 232.948C140.439 233.267 140.1 233.534 139.723 233.737C139.35 233.937 138.961 234.105 138.56 234.239C137.762 234.498 136.935 234.657 136.098 234.71C134.511 234.813 132.917 234.739 131.346 234.49C128.338 234.088 125.625 233.611 123.359 233.194C121.093 232.778 119.273 232.416 118.015 232.19L116.566 231.904L116.185 231.834C116.142 231.829 116.098 231.831 116.055 231.839Z" fill="#263238"/>
<path d="M134.243 234.786C134.315 234.366 134.355 233.941 134.364 233.515C134.419 232.732 134.514 231.648 134.669 230.458C134.825 229.269 135.025 228.199 135.171 227.446C135.273 227.032 135.347 226.611 135.391 226.186C135.217 226.579 135.087 226.99 135.005 227.411C134.757 228.403 134.564 229.409 134.429 230.423C134.292 231.444 134.211 232.471 134.188 233.5C134.155 233.929 134.173 234.361 134.243 234.786Z" fill="#263238"/>
<g opacity="0.4">
<path d="M121.163 225.197L118.01 233.104L115.564 232.647L120.246 224.931L121.163 225.197Z" fill="black"/>
</g>
<path d="M47.5628 214.088L59.5948 204.199C60.2594 200.541 62.2664 197.265 65.2211 195.014C68.1759 192.764 71.8647 191.701 75.5622 192.035C78.5243 192.305 81.3367 193.462 83.6337 195.354L90.5872 200.8C101.416 197.844 113.232 192.362 121.67 189.982C123.384 189.502 125.18 189.393 126.939 189.663C128.698 189.932 130.38 190.573 131.872 191.544L132.032 191.649C134.193 193.049 135.87 195.083 136.834 197.473C137.797 199.863 138.001 202.492 137.417 205.002C136.66 208.27 134.238 210.574 131.772 212.843C127.425 216.859 119.835 223.772 119.835 223.772L120.587 224.364L115.574 232.647L105.221 229.455C98.2024 228.451 83.4482 226.528 83.4482 226.528L87.6744 224.018L86.7069 223.717C78.6855 230.579 68.8243 233.757 56.6269 228.415C50.6209 225.614 46.8659 218.832 47.5628 214.088Z" fill="#263238"/>
<path d="M68.1526 212.984C68.1526 212.984 68.1827 213.019 68.2478 213.074L68.5537 213.325L69.7318 214.264L70.5841 214.942C70.8949 215.188 71.2659 215.419 71.6419 215.685L72.8701 216.528C73.0907 216.679 73.3113 216.834 73.5469 216.985L74.2789 217.432C75.2815 218.029 76.3694 218.717 77.5977 219.339C78.2093 219.661 78.831 220.007 79.4877 220.343L81.5282 221.312C84.3457 222.597 87.494 223.887 90.873 225.042C97.626 227.371 103.873 229.058 108.344 230.403C109.462 230.735 110.475 231.046 111.352 231.327C112.23 231.608 113.007 231.829 113.624 232.045L115.057 232.512L115.428 232.627C115.47 232.644 115.514 232.654 115.559 232.657C115.559 232.657 115.519 232.657 115.438 232.602L115.072 232.467L113.654 231.965C113.037 231.739 112.28 231.488 111.398 231.202C110.515 230.915 109.508 230.589 108.39 230.248C103.928 228.847 97.6912 227.145 90.9482 224.821C87.5742 223.672 84.4309 222.386 81.6134 221.116L79.573 220.158C78.9162 219.836 78.2946 219.495 77.6829 219.179C76.4547 218.566 75.3718 217.889 74.3641 217.301C74.1084 217.151 73.8628 217.01 73.6272 216.864C73.3915 216.719 73.1709 216.563 72.9504 216.418L71.7121 215.579C71.326 215.313 70.955 215.077 70.6392 214.851L69.7769 214.194C69.2756 213.807 68.8595 213.506 68.5737 213.285L68.2579 213.054C68.2027 213.004 68.1576 212.979 68.1526 212.984Z" fill="#455A64"/>
<path d="M67.2551 216.864C67.3683 216.948 67.4933 217.014 67.6261 217.06C67.8718 217.176 68.2377 217.321 68.6889 217.492C69.8714 217.925 71.0826 218.276 72.3136 218.541C73.5457 218.809 74.7957 218.987 76.0535 219.073C76.5549 219.108 76.9258 219.123 77.1966 219.118C77.3357 219.134 77.4764 219.125 77.6127 219.093C77.1017 219.003 76.5863 218.941 76.0686 218.907C75.111 218.802 73.7975 218.616 72.3637 218.31C70.9299 218.004 69.6565 217.627 68.7441 217.331C68.2562 217.15 67.7592 216.994 67.2551 216.864Z" fill="#455A64"/>
<path d="M85.1026 196.744C85.0575 196.794 92.9735 203.024 102.775 210.649C112.576 218.275 120.552 224.419 120.592 224.364C120.632 224.309 112.721 218.089 102.92 210.459C93.1189 202.828 85.1427 196.694 85.1026 196.744Z" fill="#455A64"/>
<path d="M56.672 223.465C56.6877 223.379 56.6961 223.292 56.6971 223.204C56.6971 223.004 56.6971 222.763 56.6971 222.466C56.6971 221.824 56.7321 220.9 56.7873 219.756C57.0729 213.788 58.1761 207.888 60.066 202.221C60.427 201.136 60.7378 200.263 60.9634 199.661C61.0637 199.384 61.1439 199.159 61.2141 198.968C61.2444 198.886 61.2678 198.802 61.2843 198.717C61.2843 198.717 61.2341 198.792 61.1639 198.948C61.0938 199.103 60.9835 199.354 60.8681 199.625C60.6125 200.213 60.2766 201.081 59.8905 202.135C58.8914 204.973 58.1103 207.883 57.5543 210.84C57.0058 213.783 56.684 216.763 56.5918 219.756C56.5617 220.905 56.5617 221.834 56.5918 222.476C56.5918 222.771 56.6018 223.017 56.6219 223.214C56.6267 223.3 56.6435 223.385 56.672 223.465Z" fill="#455A64"/>
<path d="M87.1631 223.34C87.1631 223.34 87.123 223.34 87.0628 223.415L86.777 223.656C86.5264 223.867 86.1804 224.198 85.6992 224.59C82.3262 227.351 78.358 229.288 74.1083 230.247C73.7524 230.343 73.3914 230.403 73.0204 230.468C72.6495 230.534 72.2785 230.604 71.9025 230.664C71.1404 230.744 70.3684 230.87 69.5763 230.89C67.9377 230.998 66.2925 230.95 64.6632 230.744L63.4199 230.574L62.2067 230.323C61.4152 230.157 60.6336 229.948 59.8655 229.695C58.4107 229.224 57.008 228.605 55.6793 227.848C53.4134 226.583 51.4723 224.807 50.0092 222.662C49.0264 221.216 48.3178 219.601 47.9187 217.898C47.8119 217.434 47.7299 216.965 47.673 216.493C47.673 216.342 47.6379 216.222 47.6279 216.121C47.6316 216.079 47.6316 216.037 47.6279 215.996C47.6222 216.039 47.6222 216.083 47.6279 216.126C47.6279 216.222 47.6279 216.347 47.6279 216.498C47.6624 216.975 47.7277 217.449 47.8234 217.918C48.1917 219.649 48.8841 221.295 49.8639 222.768C51.3258 224.955 53.2799 226.769 55.569 228.064C56.9092 228.834 58.3255 229.463 59.7953 229.941C60.5693 230.2 61.3577 230.412 62.1566 230.579L63.3848 230.835L64.6432 231.01C66.2878 231.214 67.9479 231.261 69.6014 231.151C70.4035 231.151 71.1806 230.995 71.9476 230.915C72.3286 230.855 72.7046 230.78 73.0756 230.714C73.4452 230.656 73.8116 230.579 74.1735 230.483C76.7184 229.894 79.1685 228.951 81.4529 227.682C82.9884 226.822 84.4359 225.814 85.7744 224.67C86.2456 224.264 86.5865 223.917 86.8222 223.696L87.0879 223.435C87.1167 223.407 87.1419 223.375 87.1631 223.34Z" fill="#455A64"/>
<path d="M120.171 195.665C119.928 195.838 119.671 195.993 119.404 196.126C118.903 196.402 118.181 196.839 117.318 197.401C116.456 197.964 115.463 198.682 114.396 199.53C113.328 200.378 112.21 201.377 111.067 202.457C108.786 204.63 106.82 206.704 105.352 208.159C104.62 208.887 104.018 209.475 103.592 209.866C103.384 210.081 103.16 210.279 102.92 210.458C103.103 210.223 103.305 210.001 103.522 209.796L105.216 208.029C106.65 206.523 108.595 204.445 110.886 202.266C112.034 201.182 113.172 200.193 114.25 199.344C115.201 198.592 116.192 197.891 117.218 197.246C118.1 196.699 118.832 196.287 119.354 196.036C119.617 195.893 119.89 195.768 120.171 195.665Z" fill="#455A64"/>
<path d="M81.483 225.79C83.5685 224.675 85.9098 225.333 87.9051 226.006C89.2336 226.452 90.6123 227.165 91.9608 226.784C92.9635 226.508 93.6604 225.719 94.4074 225.032C95.919 223.646 97.6921 222.577 99.6223 221.887C101.553 221.198 103.601 220.901 105.647 221.016C106.816 221.07 107.92 221.571 108.73 222.416C110.781 224.635 109.232 227.527 107.407 229.394C104.133 232.713 99.816 234.798 95.1844 235.298C91.3693 235.699 86.1253 235.172 82.255 233.51C79.8687 232.506 78.6454 229.67 79.8988 227.396C80.2584 226.717 80.8092 226.158 81.483 225.79Z" fill="#455A64"/>
<g opacity="0.4">
<path d="M81.4881 227.567C83.5736 226.452 85.9149 227.11 87.9102 227.783C89.2387 228.235 90.6174 228.942 91.9659 228.561C92.9435 228.29 93.6655 227.497 94.4125 226.809C95.9233 225.422 97.6963 224.352 99.6267 223.662C101.557 222.973 103.606 222.677 105.652 222.793C106.821 222.844 107.925 223.343 108.736 224.188C109.152 224.624 109.449 225.16 109.598 225.745C109.204 227.132 108.45 228.389 107.412 229.389C104.138 232.708 99.8211 234.793 95.1895 235.293C91.3744 235.694 86.1304 235.167 82.2601 233.506C81.5753 233.214 80.969 232.765 80.4907 232.195C80.0123 231.624 79.6755 230.948 79.5078 230.222C79.6321 229.667 79.873 229.144 80.2144 228.689C80.5558 228.234 80.9899 227.856 81.4881 227.582V227.567Z" fill="black"/>
</g>
<path d="M79.5078 230.207C79.5999 229.769 79.7697 229.351 80.0091 228.972C80.3065 228.538 80.6863 228.166 81.1271 227.878C81.6992 227.487 82.3552 227.236 83.0422 227.145C84.5913 226.959 86.3861 227.612 88.3814 228.149C89.384 228.41 90.4418 228.812 91.62 228.651C92.2086 228.575 92.7752 228.379 93.2844 228.074C93.7919 227.755 94.2716 227.394 94.7182 226.995C97.0713 224.793 100.049 223.377 103.241 222.943C104.072 222.825 104.916 222.825 105.748 222.943C106.435 223.043 107.097 223.273 107.698 223.621C108.148 223.89 108.552 224.229 108.896 224.625C109.172 224.982 109.429 225.352 109.668 225.735C109.501 225.308 109.269 224.91 108.981 224.555C108.65 224.139 108.254 223.78 107.808 223.491C107.195 223.114 106.513 222.861 105.803 222.748C104.947 222.619 104.077 222.619 103.221 222.748C102.237 222.863 101.268 223.079 100.328 223.39C99.2842 223.731 98.2766 224.175 97.3201 224.715C96.8113 224.996 96.3237 225.313 95.8613 225.664C95.4 226.026 94.9589 226.427 94.5077 226.819C94.0748 227.207 93.6103 227.558 93.119 227.868C92.6422 228.155 92.1115 228.342 91.5598 228.415C90.4669 228.561 89.4191 228.184 88.4215 227.913C86.4161 227.411 84.6113 226.744 82.992 226.954C82.3662 227.045 81.7666 227.267 81.2326 227.606C80.6986 227.945 80.2424 228.394 79.8938 228.922C79.7096 229.211 79.5789 229.531 79.5078 229.866C79.4942 229.979 79.4942 230.094 79.5078 230.207Z" fill="#263238"/>
<path d="M79.5078 230.207C79.5999 229.769 79.7697 229.351 80.0091 228.972C80.3065 228.538 80.6863 228.166 81.1271 227.878C81.6992 227.487 82.3552 227.236 83.0422 227.145C84.5913 226.959 86.3861 227.612 88.3814 228.149C89.384 228.41 90.4418 228.812 91.62 228.651C92.2086 228.575 92.7752 228.379 93.2844 228.074C93.7919 227.755 94.2716 227.394 94.7182 226.995C97.0713 224.793 100.049 223.377 103.241 222.943C104.072 222.825 104.916 222.825 105.748 222.943C106.435 223.043 107.097 223.273 107.698 223.621C108.148 223.89 108.552 224.229 108.896 224.625C109.172 224.982 109.429 225.352 109.668 225.735C109.501 225.308 109.269 224.91 108.981 224.555C108.65 224.139 108.254 223.78 107.808 223.491C107.195 223.114 106.513 222.861 105.803 222.748C104.947 222.619 104.077 222.619 103.221 222.748C102.237 222.863 101.268 223.079 100.328 223.39C99.2842 223.731 98.2766 224.175 97.3201 224.715C96.8113 224.996 96.3237 225.313 95.8613 225.664C95.4 226.026 94.9589 226.427 94.5077 226.819C94.0748 227.207 93.6103 227.558 93.119 227.868C92.6422 228.155 92.1115 228.342 91.5598 228.415C90.4669 228.561 89.4191 228.184 88.4215 227.913C86.4161 227.411 84.6113 226.744 82.992 226.954C82.3662 227.045 81.7666 227.267 81.2326 227.606C80.6986 227.945 80.2424 228.394 79.8938 228.922C79.7096 229.211 79.5789 229.531 79.5078 229.866C79.4942 229.979 79.4942 230.094 79.5078 230.207Z" fill="#263238"/>
<path d="M105.377 229.705C105.046 229.418 104.685 229.169 104.299 228.962C103.402 228.424 102.478 227.931 101.531 227.487C100.587 227.041 99.6196 226.646 98.6336 226.302C98.2342 226.132 97.8147 226.014 97.3853 225.95C97.7608 226.164 98.1552 226.342 98.5634 226.483C99.3003 226.794 100.313 227.226 101.416 227.743C102.519 228.26 103.491 228.747 104.198 229.138C104.571 229.366 104.966 229.556 105.377 229.705Z" fill="#263238"/>
<path d="M104.66 231.794C103.346 231.002 101.984 230.291 100.584 229.665C99.2251 228.955 97.8237 228.33 96.3877 227.793C97.703 228.582 99.0641 229.293 100.464 229.921C101.822 230.631 103.224 231.257 104.66 231.794Z" fill="#263238"/>
<path d="M96.0167 232.702C96.0568 232.768 98.2827 231.437 100.98 229.736C103.677 228.034 105.838 226.598 105.798 226.533C105.758 226.468 103.532 227.793 100.829 229.5C98.1273 231.206 95.9766 232.632 96.0167 232.702Z" fill="#263238"/>
<path d="M94.7733 230.534C95.1583 230.326 95.5226 230.083 95.8612 229.806C96.5129 229.334 97.4153 228.681 98.423 227.979C99.4307 227.276 100.363 226.663 101.035 226.217C101.412 225.997 101.767 225.74 102.093 225.448C101.684 225.603 101.294 225.804 100.93 226.046C100.228 226.452 99.2803 227.05 98.2676 227.748C97.2549 228.445 96.3625 229.133 95.7609 229.645C95.3972 229.9 95.0656 230.199 94.7733 230.534Z" fill="#263238"/>
<path d="M79.0415 112.95C78.6706 111.75 78.0647 110.636 77.259 109.674C76.4533 108.711 75.464 107.918 74.349 107.343C71.9025 106.093 68.9848 105.988 66.3277 106.605C63.6595 107.298 61.1226 108.424 58.8177 109.938C57.4643 110.684 56.2635 111.679 55.2783 112.87C53.5888 115.124 51.9645 118.799 51.8743 121.615C51.8041 123.889 52.8318 129.556 53.8545 131.595C54.2155 132.317 55.0627 132.96 56.0855 133.497C57.1804 135.514 58.625 137.319 60.3518 138.828C60.8331 137.289 61.316 135.748 61.8006 134.205L79.0415 112.95Z" fill="#263238"/>
<path d="M77.6529 110.159L73.1409 109.486C75.7528 115.244 76.7956 128.562 78.3698 134.692C79.954 132.252 83.5736 124.843 83.2879 121.946C83.0021 119.049 82.957 109.511 77.6529 110.159Z" fill="#263238"/>
<path d="M56.7171 120.48C56.75 118.842 57.3069 117.258 58.3059 115.96C59.3049 114.663 60.6932 113.72 62.2669 113.272L72.4941 110.345C76.9309 109.737 80.0642 115.134 80.4803 119.602C80.9466 124.567 81.2975 129.807 80.8212 133.537C79.8687 141.032 74.1886 142.157 74.1886 142.157C74.1886 142.157 74.2889 145.706 74.344 147.884L72.6796 157.628L59.1937 146.082L56.687 120.535C56.672 120.435 56.7071 120.641 56.7171 120.48Z" fill="#FFBE9D"/>
<path d="M79.1869 125.294C79.1993 125.545 79.1127 125.791 78.9458 125.979C78.7789 126.167 78.545 126.281 78.2945 126.298C78.1737 126.311 78.0515 126.3 77.9351 126.265C77.8187 126.23 77.7105 126.172 77.617 126.094C77.5235 126.016 77.4465 125.921 77.3907 125.813C77.3348 125.704 77.3012 125.586 77.2918 125.465C77.2781 125.214 77.3635 124.968 77.5296 124.78C77.6957 124.592 77.9291 124.478 78.1792 124.461C78.3003 124.448 78.4228 124.459 78.5395 124.494C78.6561 124.529 78.7646 124.587 78.8585 124.665C78.9525 124.742 79.0299 124.838 79.0863 124.946C79.1427 125.054 79.1769 125.173 79.1869 125.294Z" fill="#263238"/>
<path d="M79.4475 122.549C79.3322 122.674 78.5903 122.162 77.5625 122.197C76.5348 122.232 75.7978 122.77 75.6825 122.644C75.6274 122.594 75.7377 122.363 76.0585 122.112C76.4964 121.794 77.0216 121.619 77.5625 121.61C78.0976 121.591 78.6246 121.744 79.0665 122.047C79.3874 122.268 79.5027 122.488 79.4475 122.549Z" fill="#263238"/>
<path d="M70.208 125.304C70.2217 125.556 70.1356 125.803 69.9684 125.991C69.8012 126.179 69.5666 126.293 69.3156 126.308C69.1948 126.322 69.0726 126.31 68.9562 126.275C68.8398 126.24 68.7317 126.182 68.6381 126.104C68.5446 126.027 68.4676 125.931 68.4118 125.823C68.3559 125.715 68.3223 125.596 68.313 125.475C68.3005 125.225 68.3864 124.98 68.5523 124.792C68.7181 124.604 68.9507 124.489 69.2003 124.471C69.3214 124.458 69.4439 124.469 69.5606 124.504C69.6773 124.539 69.7858 124.597 69.8797 124.675C69.9736 124.753 70.051 124.848 70.1074 124.956C70.1638 125.065 70.198 125.183 70.208 125.304Z" fill="#263238"/>
<path d="M69.7067 122.824C69.5914 122.955 68.8494 122.443 67.8217 122.478C66.794 122.513 66.057 123.05 65.9417 122.925C65.8264 122.799 65.9968 122.644 66.3227 122.393C66.7601 122.074 67.2856 121.898 67.8267 121.891C68.3617 121.872 68.8888 122.025 69.3307 122.327C69.6215 122.548 69.7368 122.769 69.7067 122.824Z" fill="#263238"/>
<path d="M73.1258 130.822C73.6624 130.637 74.2198 130.519 74.7852 130.47C75.0509 130.435 75.2866 130.375 75.3367 130.194C75.3489 129.922 75.2791 129.653 75.1362 129.421L74.2989 127.443C73.1308 124.622 72.2936 122.303 72.3939 122.258C72.4941 122.212 73.5419 124.456 74.71 127.278L75.5172 129.286C75.6888 129.599 75.7473 129.963 75.6826 130.315C75.6473 130.408 75.591 130.493 75.518 130.562C75.445 130.631 75.3573 130.682 75.2615 130.711C75.1183 130.755 74.97 130.781 74.8203 130.786C74.2594 130.872 73.6898 130.884 73.1258 130.822Z" fill="#263238"/>
<path d="M64.2272 139.777C64.2272 139.777 66.799 144.832 74.2538 143.904L74.2087 142.147C70.7266 142.298 67.2711 141.477 64.2272 139.777Z" fill="#EB996E"/>
<path d="M69.2505 119.115C69.1603 119.396 68.1275 119.295 66.9293 119.481C65.7311 119.667 64.7586 120.023 64.5931 119.777C64.5179 119.657 64.6783 119.391 65.0644 119.105C65.5787 118.756 66.1658 118.529 66.781 118.442C67.3962 118.355 68.0231 118.41 68.6138 118.603C69.065 118.768 69.2906 118.974 69.2505 119.115Z" fill="#263238"/>
<path d="M79.0215 119.406C78.846 119.647 78.1341 119.406 77.2818 119.441C76.4296 119.476 75.7127 119.647 75.5372 119.406C75.462 119.29 75.5673 119.054 75.8781 118.824C76.2926 118.543 76.7815 118.393 77.2818 118.393C77.7822 118.393 78.271 118.543 78.6856 118.824C78.9914 119.054 79.0967 119.29 79.0215 119.406Z" fill="#263238"/>
<path d="M78.2645 112.835C77.9856 112.295 77.5622 111.843 77.0416 111.53C76.521 111.217 75.9238 111.055 75.3166 111.063C74.0982 111.093 72.9145 111.474 71.9076 112.162C67.541 114.858 65.4404 121.128 61.1289 123.909C60.0711 124.591 58.6523 124.034 57.7599 124.913C56.8676 125.791 56.3111 127.202 56.8475 128.346C56.2012 127.589 55.6645 126.744 55.2533 125.836C55.0536 125.376 54.954 124.878 54.9609 124.376C54.9678 123.874 55.0811 123.38 55.2934 122.925C55.6543 122.257 56.296 121.735 56.4765 120.992C56.6169 120.339 56.3412 119.667 56.3512 118.984C56.4072 118.303 56.6218 117.644 56.9779 117.061C58.6122 113.969 60.8933 111.153 63.8912 109.356C65.8428 108.15 68.0855 107.499 70.3785 107.473C72.6817 107.463 74.9127 108.277 76.6702 109.767C77.6729 110.656 78.7357 111.575 78.2645 112.83" fill="#263238"/>
<path d="M57.8903 125.846C57.805 125.636 53.8796 124.34 53.9448 128.482C54.0099 132.498 58.0357 131.594 58.0407 131.494C58.0457 131.394 57.8903 125.846 57.8903 125.846Z" fill="#FFBE9D"/>
<path d="M56.7773 129.978C56.7773 129.978 56.7071 130.028 56.5868 130.089C56.4256 130.151 56.2467 130.151 56.0855 130.089C55.6593 129.938 55.2883 129.275 55.2583 128.548C55.2389 128.204 55.2989 127.86 55.4337 127.544C55.4668 127.418 55.5296 127.303 55.617 127.208C55.7043 127.113 55.8135 127.04 55.9351 126.996C56.0146 126.973 56.0996 126.979 56.1756 127.012C56.2515 127.045 56.3136 127.103 56.3512 127.177C56.4063 127.293 56.3813 127.373 56.4013 127.378C56.4214 127.383 56.4865 127.308 56.4514 127.142C56.4291 127.043 56.3722 126.956 56.291 126.896C56.2359 126.854 56.1728 126.824 56.1055 126.807C56.0382 126.791 55.9682 126.789 55.9 126.801C55.7318 126.838 55.5762 126.918 55.448 127.033C55.3197 127.149 55.2233 127.295 55.168 127.458C55.0025 127.809 54.9267 128.195 54.9474 128.583C54.9875 129.391 55.4137 130.144 56.0002 130.299C56.1087 130.327 56.2219 130.331 56.3319 130.31C56.4419 130.289 56.546 130.244 56.6369 130.179C56.7673 130.079 56.7873 129.988 56.7773 129.978Z" fill="#EB996E"/>
<path d="M56.2358 123.829C56.3195 123.788 56.3999 123.741 56.4765 123.688C56.6269 123.583 56.8575 123.447 57.1332 123.241C57.9073 122.639 58.6149 121.956 59.2438 121.203C60.1598 120.081 61.0117 118.908 61.7956 117.689C62.7427 116.197 63.8108 114.785 64.9891 113.467C65.6205 112.809 66.3215 112.222 67.0797 111.715C67.7917 111.251 68.5577 110.875 69.3607 110.596C70.7201 110.118 72.1572 109.9 73.597 109.953C74.5692 109.993 75.5319 110.162 76.4596 110.455C76.7905 110.546 77.0412 110.651 77.2116 110.711C77.2978 110.747 77.3866 110.775 77.4773 110.797L77.2267 110.676C76.9832 110.567 76.7338 110.471 76.4797 110.39C75.551 110.074 74.5821 109.891 73.602 109.848C72.1452 109.767 70.6864 109.968 69.3056 110.44C68.4878 110.716 67.708 111.094 66.9844 111.565C66.2128 112.075 65.4999 112.669 64.8588 113.337C63.6709 114.661 62.5991 116.085 61.6553 117.594C60.8833 118.809 60.0465 119.982 59.1486 121.108C58.5342 121.861 57.8474 122.552 57.0981 123.171C56.8274 123.387 56.5968 123.532 56.4564 123.673C56.3777 123.717 56.3038 123.769 56.2358 123.829Z" fill="#455A64"/>
<path d="M56.3411 130.706C56.1923 130.682 56.0397 130.701 55.9013 130.761C55.7628 130.82 55.6443 130.918 55.5596 131.043C55.4749 131.168 55.4275 131.315 55.4231 131.466C55.4186 131.616 55.4573 131.765 55.5345 131.895C55.6117 132.025 55.7242 132.13 55.8589 132.198C55.9935 132.265 56.1448 132.293 56.2947 132.278C56.4447 132.263 56.5873 132.205 56.7056 132.112C56.8239 132.018 56.9131 131.893 56.9628 131.75C57.0245 131.558 57.0143 131.35 56.934 131.166C56.8537 130.981 56.7089 130.832 56.5266 130.746" fill="white"/>
<path d="M56.5266 130.756C56.703 130.891 56.8342 131.077 56.9026 131.288C56.9349 131.397 56.9395 131.512 56.9158 131.622C56.8922 131.733 56.8411 131.835 56.7672 131.921C56.6772 132.025 56.5603 132.102 56.4294 132.143C56.2985 132.185 56.1586 132.19 56.0253 132.157C55.8961 132.113 55.7814 132.034 55.6931 131.93C55.6048 131.826 55.5464 131.699 55.5239 131.565C55.5073 131.452 55.5188 131.337 55.5573 131.231C55.5958 131.124 55.6601 131.028 55.7445 130.952C55.9145 130.809 56.1249 130.723 56.3461 130.706C56.3461 130.706 56.2809 130.666 56.1556 130.666C55.9718 130.671 55.7952 130.739 55.6543 130.857C55.5448 130.942 55.4594 131.055 55.4066 131.183C55.3539 131.312 55.3356 131.452 55.3535 131.59C55.3685 131.763 55.4356 131.927 55.5459 132.061C55.6562 132.195 55.8046 132.293 55.9713 132.341C56.1381 132.388 56.3154 132.384 56.4799 132.329C56.6444 132.274 56.7883 132.17 56.8926 132.031C56.9815 131.924 57.0408 131.795 57.0645 131.658C57.0883 131.521 57.0757 131.379 57.0279 131.248C56.9707 131.076 56.8578 130.928 56.7071 130.827C56.6018 130.756 56.5316 130.746 56.5266 130.756Z" fill="#263238"/>
<path d="M57.2786 124.938C57.2435 126.037 57.2285 127.197 57.7799 128.156C58.3314 129.114 59.6098 129.747 60.5473 129.16C61.3093 128.693 61.5149 127.689 61.6201 126.795C61.931 124.225 62.0312 121.635 62.3571 119.064L57.2786 124.938Z" fill="#263238"/>
<path d="M77.2267 110.942C77.2267 110.942 76.8708 110.887 76.224 110.882C75.3153 110.896 74.418 111.087 73.582 111.444C73.0049 111.688 72.4554 111.993 71.9427 112.353C71.3557 112.772 70.7948 113.226 70.2632 113.713C69.0318 114.818 67.9392 116.069 67.0095 117.438C66.5082 118.166 66.0871 118.919 65.6158 119.617C65.174 120.296 64.6522 120.92 64.0617 121.474C63.0455 122.387 61.9287 123.18 60.7328 123.839C59.7302 124.416 58.8729 124.818 58.2913 125.099L57.6146 125.41C57.5375 125.453 57.4548 125.485 57.3689 125.505C57.4401 125.454 57.5156 125.409 57.5945 125.37L58.2512 125.018C58.8228 124.717 59.66 124.29 60.6526 123.703C61.8261 123.033 62.9208 122.233 63.9163 121.319C64.4884 120.772 64.9932 120.158 65.4203 119.491C65.8815 118.804 66.3127 118.051 66.804 117.313C67.747 115.928 68.8585 114.667 70.1128 113.558C70.6525 113.067 71.2235 112.613 71.8223 112.197C72.3485 111.836 72.9135 111.534 73.5068 111.299C74.3641 110.943 75.2865 110.772 76.214 110.797C76.463 110.804 76.7111 110.831 76.956 110.877C77.0482 110.889 77.1389 110.911 77.2267 110.942Z" fill="#455A64"/>
<path d="M57.0981 122.458C56.99 122.553 56.8724 122.637 56.7472 122.709L55.7445 123.336L55.4086 123.542C55.2752 123.623 55.1268 123.676 54.9724 123.698C54.8769 123.713 54.7789 123.694 54.6967 123.643C54.6524 123.614 54.6154 123.576 54.5884 123.53C54.5614 123.485 54.5453 123.434 54.5413 123.382C54.5469 123.2 54.6082 123.025 54.7168 122.88L55.8397 120.952L56.0052 121.098C55.623 121.395 55.1922 121.625 54.7318 121.775C54.272 121.931 53.788 122.002 53.303 121.986C53.1791 121.989 53.0556 121.972 52.937 121.936C52.8681 121.918 52.8038 121.885 52.7485 121.84C52.6931 121.795 52.648 121.739 52.6162 121.675C52.5914 121.607 52.5835 121.534 52.5931 121.462C52.6027 121.391 52.6295 121.322 52.6713 121.263C52.7373 121.172 52.8111 121.086 52.8919 121.007C53.4086 120.48 53.8521 119.886 54.2104 119.24C54.5267 118.636 54.7997 118.01 55.0276 117.368C55.016 117.553 54.9789 117.735 54.9173 117.91C54.7779 118.397 54.588 118.868 54.3508 119.315C54.0031 119.986 53.5626 120.605 53.0423 121.153C52.8969 121.298 52.7515 121.464 52.8167 121.589C52.8819 121.715 53.0975 121.77 53.318 121.765C53.7773 121.775 54.2348 121.707 54.6716 121.564C55.107 121.418 55.5153 121.201 55.8799 120.922L56.3461 120.555L56.0403 121.057L54.8922 122.965C54.8016 123.079 54.7459 123.217 54.7318 123.362C54.7346 123.389 54.7432 123.415 54.757 123.439C54.7708 123.462 54.7895 123.483 54.8118 123.498C54.8342 123.514 54.8596 123.525 54.8865 123.53C54.9133 123.535 54.9409 123.534 54.9674 123.527C55.2233 123.47 55.4653 123.363 55.6793 123.211L56.7121 122.639C56.834 122.565 56.9634 122.504 57.0981 122.458Z" fill="#455A64"/>
<path d="M69.2706 132.834C69.3381 132.526 69.5107 132.252 69.7587 132.057C70.0066 131.863 70.3145 131.762 70.6292 131.77C70.8575 131.799 71.0755 131.883 71.2641 132.015C71.4528 132.147 71.6065 132.323 71.7121 132.528C71.8175 132.734 71.8808 132.96 71.898 133.191C71.9152 133.422 71.8861 133.654 71.8123 133.873V133.969C71.6049 134.206 71.3294 134.373 71.0234 134.448C70.7174 134.523 70.3959 134.501 70.1028 134.385C69.8112 134.257 69.5709 134.034 69.4201 133.753C69.2693 133.472 69.2167 133.149 69.2706 132.834Z" fill="#EB996E"/>
<path d="M72.5542 133.949C72.5542 133.793 71.5115 133.874 70.7043 133.04C69.8972 132.207 69.9272 131.093 69.7818 131.098C69.7167 131.098 69.5964 131.359 69.6214 131.826C69.6609 132.436 69.9128 133.013 70.3333 133.457C70.74 133.881 71.2957 134.13 71.8824 134.15C72.3186 134.155 72.5642 134.034 72.5542 133.949Z" fill="#263238"/>
<path d="M72.2935 125.028C72.2487 124.664 72.1851 124.302 72.103 123.944C71.8395 122.978 71.2629 122.127 70.4637 121.524C69.8763 121.084 69.1885 120.798 68.4627 120.692C67.7368 120.586 66.996 120.663 66.3076 120.917C65.5074 121.213 64.8106 121.737 64.3023 122.423C63.7517 123.172 63.4548 124.078 63.4548 125.008C63.4548 125.938 63.7517 126.844 64.3023 127.593C64.8094 128.281 65.5065 128.804 66.3076 129.099C66.9961 129.354 67.7375 129.431 68.4637 129.324C69.1899 129.217 69.8776 128.929 70.4637 128.487C71.2645 127.888 71.8417 127.038 72.103 126.072C72.1854 125.713 72.249 125.349 72.2935 124.983C72.3237 125.357 72.2933 125.733 72.2033 126.097C72.0048 126.95 71.5633 127.727 70.9322 128.333C70.3012 128.939 69.5079 129.348 68.6488 129.511C67.8397 129.668 67.0033 129.603 66.2274 129.325C65.8077 129.177 65.4123 128.967 65.0543 128.703C64.6762 128.423 64.346 128.084 64.0767 127.699C63.4906 126.907 63.1742 125.948 63.1742 124.963C63.1742 123.978 63.4906 123.018 64.0767 122.227C64.3471 121.842 64.6771 121.503 65.0543 121.223C65.4111 120.956 65.8068 120.747 66.2274 120.601C67.0029 120.321 67.8392 120.255 68.6488 120.41C69.5065 120.578 70.2978 120.99 70.9281 121.596C71.5584 122.202 72.0011 122.977 72.2033 123.828C72.3034 124.22 72.334 124.626 72.2935 125.028Z" fill="#455A64"/>
<path d="M83.5435 125.028C83.4987 124.664 83.4351 124.302 83.353 123.944C83.0927 122.977 82.5154 122.124 81.7137 121.525C81.1263 121.085 80.4385 120.799 79.7127 120.692C78.9868 120.586 78.246 120.664 77.5576 120.917C77.1623 121.06 76.7905 121.261 76.4547 121.514C76.1001 121.773 75.7888 122.087 75.5322 122.443C74.9817 123.192 74.6847 124.098 74.6847 125.028C74.6847 125.959 74.9817 126.865 75.5322 127.614C75.7887 127.972 76.1 128.287 76.4547 128.548C76.7905 128.801 77.1623 129.002 77.5576 129.145C78.1345 129.355 78.7484 129.442 79.3608 129.402C79.9731 129.362 80.5705 129.195 81.1152 128.912C81.6598 128.629 82.1399 128.236 82.5251 127.757C82.9103 127.279 83.1922 126.726 83.353 126.133C83.4354 125.773 83.499 125.41 83.5435 125.044C83.577 125.417 83.5465 125.794 83.4533 126.158C83.2548 127.011 82.8132 127.787 82.1822 128.393C81.5512 128.999 80.7579 129.409 79.8988 129.572C79.0897 129.728 78.2533 129.664 77.4774 129.386C77.0577 129.238 76.6623 129.028 76.3043 128.763C75.9262 128.484 75.596 128.145 75.3267 127.759C74.7406 126.968 74.4242 126.009 74.4242 125.023C74.4242 124.038 74.7406 123.079 75.3267 122.288C75.6035 121.9 75.9423 121.561 76.3293 121.284C76.6837 121.016 77.0779 120.806 77.4974 120.661C78.273 120.382 79.1092 120.316 79.9189 120.47C80.7766 120.638 81.5678 121.05 82.1981 121.656C82.8284 122.263 83.2711 123.038 83.4733 123.889C83.5633 124.262 83.5871 124.647 83.5435 125.028Z" fill="#455A64"/>
<path d="M74.6549 124.496C74.2491 124.476 73.8425 124.476 73.4367 124.496C73.0411 124.592 72.6512 124.709 72.2686 124.848C72.5599 124.515 72.9608 124.297 73.3986 124.234C73.8363 124.172 74.282 124.268 74.6549 124.506V124.496Z" fill="#455A64"/>
<path d="M63.3147 124.692C62.389 125.047 61.4347 125.323 60.4621 125.515C59.5079 125.788 58.5316 125.977 57.5443 126.077C58.4697 125.722 59.4241 125.449 60.3969 125.259C61.3513 124.986 62.3275 124.796 63.3147 124.692Z" fill="#455A64"/>
<path d="M66.7689 128.678C66.405 128.626 66.0602 128.482 65.7663 128.261C65.0067 127.765 64.4376 127.025 64.152 126.163C63.8782 125.297 63.91 124.363 64.2422 123.517C64.3514 123.161 64.5519 122.839 64.8237 122.583C64.8639 122.609 64.6132 122.95 64.4127 123.587C64.1446 124.398 64.1415 125.273 64.4038 126.086C64.6662 126.898 65.1803 127.606 65.8715 128.105C66.3879 128.512 66.789 128.633 66.7689 128.678Z" fill="white"/>
<path d="M66.1672 121.484C66.2023 121.545 66.072 121.695 65.8714 121.821C65.6709 121.946 65.4754 122.002 65.4353 121.941C65.3952 121.881 65.5305 121.725 65.7311 121.6C65.9316 121.474 66.1271 121.444 66.1672 121.484Z" fill="white"/>
<path d="M75.7226 127.031C75.4777 126.771 75.3049 126.451 75.2213 126.103C74.9655 125.278 74.9879 124.391 75.2851 123.58C75.5822 122.769 76.1377 122.078 76.8657 121.615C77.1484 121.401 77.4819 121.264 77.8333 121.218C77.8333 121.258 77.4723 121.394 76.971 121.765C76.3184 122.248 75.8188 122.908 75.5321 123.668C75.2615 124.434 75.2146 125.261 75.3968 126.053C75.5422 126.66 75.7226 127.006 75.7226 127.031Z" fill="white"/>
<path d="M77.1465 128.276C77.1465 128.347 76.8256 128.336 76.5499 128.101C76.2741 127.865 76.219 127.548 76.2842 127.528C76.3493 127.508 76.4947 127.709 76.7203 127.9C76.9459 128.09 77.1665 128.201 77.1465 128.276Z" fill="white"/>
</svg>
