<svg width="12" height="14" viewBox="0 0 12 14" fill="none" xmlns="http://www.w3.org/2000/svg">
<path d="M2 1.00016C2 0.823352 2.07024 0.653782 2.19526 0.528758C2.32029 0.403734 2.48986 0.333496 2.66667 0.333496C2.84348 0.333496 3.01305 0.403734 3.13807 0.528758C3.2631 0.653782 3.33333 0.823352 3.33333 1.00016V1.66683H8.66667V1.00016C8.66667 0.823352 8.7369 0.653782 8.86193 0.528758C8.98695 0.403734 9.15652 0.333496 9.33333 0.333496C9.51014 0.333496 9.67971 0.403734 9.80474 0.528758C9.92976 0.653782 10 0.823352 10 1.00016V1.66683H10.6667C11.0203 1.66683 11.3594 1.80731 11.6095 2.05735C11.8595 2.3074 12 2.64654 12 3.00016V12.3335C12 12.6871 11.8595 13.0263 11.6095 13.2763C11.3594 13.5264 11.0203 13.6668 10.6667 13.6668H1.33333C0.979711 13.6668 0.640573 13.5264 0.390524 13.2763C0.140476 13.0263 0 12.6871 0 12.3335V3.00016C0 2.64654 0.140476 2.3074 0.390524 2.05735C0.640573 1.80731 0.979711 1.66683 1.33333 1.66683H2V1.00016ZM1.33333 5.00016V11.6668C1.33333 11.8436 1.40357 12.0132 1.5286 12.1382C1.65362 12.2633 1.82319 12.3335 2 12.3335H10C10.1768 12.3335 10.3464 12.2633 10.4714 12.1382C10.5964 12.0132 10.6667 11.8436 10.6667 11.6668V5.00016H1.33333ZM2.66667 7.3335C2.66667 7.15668 2.7369 6.98712 2.86193 6.86209C2.98695 6.73707 3.15652 6.66683 3.33333 6.66683C3.51014 6.66683 3.67971 6.73707 3.80474 6.86209C3.92976 6.98712 4 7.15668 4 7.3335C4 7.51031 3.92976 7.67988 3.80474 7.8049C3.67971 7.92992 3.51014 8.00016 3.33333 8.00016C3.15652 8.00016 2.98695 7.92992 2.86193 7.8049C2.7369 7.67988 2.66667 7.51031 2.66667 7.3335ZM5.33333 7.3335C5.33333 7.15668 5.40357 6.98712 5.5286 6.86209C5.65362 6.73707 5.82319 6.66683 6 6.66683C6.17681 6.66683 6.34638 6.73707 6.4714 6.86209C6.59643 6.98712 6.66667 7.15668 6.66667 7.3335C6.66667 7.51031 6.59643 7.67988 6.4714 7.8049C6.34638 7.92992 6.17681 8.00016 6 8.00016C5.82319 8.00016 5.65362 7.92992 5.5286 7.8049C5.40357 7.67988 5.33333 7.51031 5.33333 7.3335ZM8.66667 6.66683C8.48986 6.66683 8.32029 6.73707 8.19526 6.86209C8.07024 6.98712 8 7.15668 8 7.3335C8 7.51031 8.07024 7.67988 8.19526 7.8049C8.32029 7.92992 8.48986 8.00016 8.66667 8.00016C8.84348 8.00016 9.01305 7.92992 9.13807 7.8049C9.2631 7.67988 9.33333 7.51031 9.33333 7.3335C9.33333 7.15668 9.2631 6.98712 9.13807 6.86209C9.01305 6.73707 8.84348 6.66683 8.66667 6.66683ZM3.33333 9.00016C3.15652 9.00016 2.98695 9.0704 2.86193 9.19542C2.7369 9.32045 2.66667 9.49002 2.66667 9.66683C2.66667 9.84364 2.7369 10.0132 2.86193 10.1382C2.98695 10.2633 3.15652 10.3335 3.33333 10.3335C3.51014 10.3335 3.67971 10.2633 3.80474 10.1382C3.92976 10.0132 4 9.84364 4 9.66683C4 9.49002 3.92976 9.32045 3.80474 9.19542C3.67971 9.0704 3.51014 9.00016 3.33333 9.00016ZM5.33333 9.66683C5.33333 9.49002 5.40357 9.32045 5.5286 9.19542C5.65362 9.0704 5.82319 9.00016 6 9.00016C6.17681 9.00016 6.34638 9.0704 6.4714 9.19542C6.59643 9.32045 6.66667 9.49002 6.66667 9.66683C6.66667 9.84364 6.59643 10.0132 6.4714 10.1382C6.34638 10.2633 6.17681 10.3335 6 10.3335C5.82319 10.3335 5.65362 10.2633 5.5286 10.1382C5.40357 10.0132 5.33333 9.84364 5.33333 9.66683ZM8.66667 9.00016C8.48986 9.00016 8.32029 9.0704 8.19526 9.19542C8.07024 9.32045 8 9.49002 8 9.66683C8 9.84364 8.07024 10.0132 8.19526 10.1382C8.32029 10.2633 8.48986 10.3335 8.66667 10.3335C8.84348 10.3335 9.01305 10.2633 9.13807 10.1382C9.2631 10.0132 9.33333 9.84364 9.33333 9.66683C9.33333 9.49002 9.2631 9.32045 9.13807 9.19542C9.01305 9.0704 8.84348 9.00016 8.66667 9.00016Z" fill="black"/>
</svg>
